<svg width="143" height="147" viewBox="0 0 143 147" fill="none" xmlns="http://www.w3.org/2000/svg">
<g id="_x34_3_x2C__Joint_x2C__Mechanical_x2C__Plumber_x2C__Plumbing">
<g id="Group">
<path id="Vector" d="M141.894 112.261L128.31 98.677L132.776 94.2112C134.079 92.9086 134.079 91.0479 132.776 89.7453L114.54 71.5097C113.238 70.2072 111.377 70.2072 110.075 71.5097C103.748 77.8364 91.6529 90.1175 85.3263 96.258L78.6275 102.957L67.2768 114.307C65.9743 115.61 65.9743 117.471 67.2768 118.773L85.3263 136.823C86.6288 138.125 88.4896 138.125 89.7921 136.823L94.258 132.357L107.842 145.941C109.144 147.243 111.005 147.243 112.307 145.941L141.522 116.727C142.824 115.61 142.824 113.563 141.894 112.261ZM87.5592 102.957L101.143 116.54L98.9099 118.959L85.3263 105.376L87.5592 102.957ZM94.4441 96.258L108.028 109.842L105.609 112.075L92.0251 98.4909L94.4441 96.258ZM101.143 89.5592L114.726 103.143L112.494 105.376L98.9099 91.7922L101.143 89.5592ZM112.307 78.2085L125.891 91.7922C125.705 91.9782 118.634 99.0492 119.192 98.4909L105.609 85.0934L112.307 78.2085ZM87.5592 130.31L73.9756 116.727L80.6744 110.028L94.258 123.611C94.4441 123.611 87.1871 130.868 87.5592 130.31ZM110.075 139.242L98.7239 128.077L123.472 103.329L134.823 114.68L110.075 139.242Z" fill="#356697"/>
<path id="Vector_2" d="M69.5097 98.4909C70.8123 99.7934 72.673 99.7934 73.9756 98.4909L92.0251 80.4414C93.3276 79.1389 93.3276 77.2781 92.0251 75.9755L87.5592 71.5097L89.7921 69.2768C91.0947 67.9742 91.0947 66.1135 89.7921 64.8109C88.4896 63.5084 86.6288 63.5084 85.3263 64.8109L83.0934 67.0438L80.8604 64.8109L83.0934 62.578C84.3959 61.2755 84.3959 59.4147 83.0934 58.1121C81.7908 56.8096 79.9301 56.8096 78.6275 58.1121L76.3946 60.3451L74.1617 58.1121L78.6275 53.6463C79.9301 52.3437 79.9301 50.483 78.6275 49.1804L71.9287 42.4816L76.3946 38.0158C77.6971 36.7133 77.6971 34.8525 76.3946 33.5499L58.3451 15.5005C57.0426 14.1979 55.1818 14.1979 53.8792 15.5005L49.4134 19.9663L35.8298 6.38267C34.5272 5.08013 32.6664 5.08013 31.3639 6.38267L1.96371 35.4107C0.661166 36.7133 0.661166 38.574 1.96371 39.8766L15.5473 53.4602L11.0815 57.9261C9.77895 59.2286 9.77895 61.0894 11.0815 62.3919L29.131 80.4414C30.4335 81.7439 32.2943 81.7439 33.5968 80.4414L35.8298 78.2085L42.5285 84.9073C43.8311 86.2098 45.6918 86.2098 46.9944 84.9073L51.4602 80.4414L53.6932 82.6743L51.6463 85.0933C49.5995 87.1402 51.0881 90.6757 53.8792 90.6757C54.6236 90.6757 55.3679 90.4896 56.1122 89.7453L58.3451 87.5123L60.578 89.7453L58.3451 91.9782C56.2982 94.025 57.7869 97.5605 60.578 97.5605C61.3223 97.5605 62.2527 97.3744 62.811 96.6301L65.0439 94.3972L69.5097 98.4909ZM33.5968 12.8954L44.9475 24.2461L20.0132 48.9944L8.66249 37.8297L33.5968 12.8954ZM85.3263 78.2085L71.7427 91.7921L69.5097 89.5592L83.0934 75.9755L85.3263 78.2085ZM17.7803 60.3451L56.1122 22.0132L69.6958 35.5968L65.23 40.0626L33.5968 71.5097L31.3639 73.7426L17.7803 60.3451ZM44.7615 78.2085L40.2956 73.7426L67.2768 46.7614L71.7427 51.2273C68.0211 54.9488 53.5071 69.4629 49.2273 73.7426L44.7615 78.2085ZM56.1122 75.9755L69.6958 62.3919L71.9287 64.6248L58.3451 78.2085L56.1122 75.9755ZM62.811 82.8604L76.3946 69.2768L78.6275 71.5097L65.0439 85.0933L62.811 82.8604Z" fill="#356697"/>
<path id="Vector_3" d="M91.2891 23.4077L86.8168 27.8826L91.2916 32.3549L95.7639 27.88L91.2891 23.4077Z" fill="#356697"/>
<path id="Vector_4" d="M35.6437 127.333L40.2956 131.799L44.7615 127.333L40.2956 122.867L35.6437 127.333Z" fill="#356697"/>
<path id="Vector_5" d="M128.993 39.8319L124.519 44.3054L128.993 48.779L133.466 44.3054L128.993 39.8319Z" fill="#356697"/>
<path id="Vector_6" d="M127.566 10.6624C129.313 10.6624 130.729 9.24618 130.729 7.49913C130.729 5.75208 129.313 4.33582 127.566 4.33582C125.819 4.33582 124.402 5.75208 124.402 7.49913C124.402 9.24618 125.819 10.6624 127.566 10.6624Z" fill="#356697"/>
<path id="Vector_7" d="M70.4401 7.31307C72.1872 7.31307 73.6034 5.89681 73.6034 4.14976C73.6034 2.40271 72.1872 0.98645 70.4401 0.98645C68.6931 0.98645 67.2768 2.40271 67.2768 4.14976C67.2768 5.89681 68.6931 7.31307 70.4401 7.31307Z" fill="#356697"/>
<path id="Vector_8" d="M105.423 58.4843C107.17 58.4843 108.586 57.0681 108.586 55.321C108.586 53.574 107.17 52.1577 105.423 52.1577C103.676 52.1577 102.259 53.574 102.259 55.321C102.259 57.0681 103.676 58.4843 105.423 58.4843Z" fill="#356697"/>
<path id="Vector_9" d="M28.7588 93.4668C27.0841 93.4668 25.5955 94.9554 25.5955 96.6301C25.5955 98.3048 27.0841 99.7934 28.7588 99.7934C30.4335 99.7934 31.9221 98.3048 31.9221 96.6301C32.1082 94.9554 30.6196 93.4668 28.7588 93.4668Z" fill="#356697"/>
<path id="Vector_10" d="M12.7562 128.822C11.0815 128.822 9.59288 130.31 9.59288 131.985C9.59288 133.66 11.0815 135.148 12.7562 135.148C14.4309 135.148 15.9195 133.66 15.9195 131.985C16.1056 130.124 14.617 128.822 12.7562 128.822Z" fill="#356697"/>
</g>
</g>
</svg>
