<svg width="187" height="187" viewBox="0 0 187 187" fill="none" xmlns="http://www.w3.org/2000/svg">
<g id="Group">
<g id="Group_2">
<path id="rb-3382992" d="M57.9727 6.61792L51.3548 6.61792V2.2501C51.3548 1.00742 52.3622 1.71661e-05 53.6048 1.71661e-05L57.9727 1.71661e-05V6.61792Z" fill="#356697"/>
</g>
<g id="Group_3">
<path id="l-3382992" d="M57.7744 6.61792V1.71661e-05H62.1422C63.3849 1.71661e-05 64.3923 1.00742 64.3923 2.2501V6.61792H57.7744Z" fill="#356697"/>
</g>
<g id="Group_4">
<path id="b-3382992" d="M70.6133 6.61792V2.2501C70.6133 1.00742 71.6207 1.71661e-05 72.8634 1.71661e-05H74.9811C76.2238 1.71661e-05 77.2312 1.00742 77.2312 2.2501V6.61792H70.6133Z" fill="#356697"/>
</g>
<g id="Group_5">
<path id="b-3382992_2" d="M83.4521 6.61792V2.2501C83.4521 1.00742 84.4595 1.71661e-05 85.7022 1.71661e-05H87.82C89.0627 1.71661e-05 90.0701 1.00742 90.0701 2.2501V6.61792H83.4521Z" fill="#356697"/>
</g>
<g id="Group_6">
<path id="r-3382992" d="M102.908 6.61792L98.5404 6.61792C97.2977 6.61792 96.2903 5.61052 96.2903 4.36783V2.2501C96.2903 1.00742 97.2977 1.71661e-05 98.5404 1.71661e-05L102.908 1.71661e-05V6.61792Z" fill="#356697"/>
</g>
<g id="Group_7">
<path id="rect-3382992" d="M109.328 0H102.71V6.6179H109.328V0Z" fill="#356697"/>
</g>
<g id="Group_8">
<path id="rect-3382992_2" d="M115.747 0H109.129V6.6179H115.747V0Z" fill="#356697"/>
</g>
<g id="Group_9">
<path id="rect-3382992_3" d="M122.167 0H115.549V6.6179H122.167V0Z" fill="#356697"/>
</g>
<g id="Group_10">
<path id="lb-3382992" d="M121.968 6.61792V1.71661e-05H126.336C127.578 1.71661e-05 128.586 1.00742 128.586 2.2501V6.61792H121.968Z" fill="#356697"/>
</g>
<g id="Group_11">
<path id="rect-3382992_4" d="M57.9724 6.41937H51.3545V13.0373H57.9724V6.41937Z" fill="#356697"/>
</g>
<g id="Group_12">
<path id="n_rb-3382992" d="M68.793 12.9049V13.0373H70.8114V11.0188H70.6791C70.6791 12.0644 69.832 12.9049 68.793 12.9049Z" fill="#356697"/>
</g>
<g id="Group_13">
<path id="rect-3382992_5" d="M77.2312 6.41937H70.6133V13.0373H77.2312V6.41937Z" fill="#356697"/>
</g>
<g id="Group_14">
<path id="rect-3382992_6" d="M90.0701 6.41937H83.4521V13.0373H90.0701V6.41937Z" fill="#356697"/>
</g>
<g id="Group_15">
<path id="rt-3382992" d="M115.747 6.41937V13.0373H111.379C110.137 13.0373 109.129 12.0299 109.129 10.7872V6.41937H115.747Z" fill="#356697"/>
</g>
<g id="Group_16">
<path id="rect-3382992_7" d="M122.167 6.41937H115.549V13.0373H122.167V6.41937Z" fill="#356697"/>
</g>
<g id="Group_17">
<path id="lt-3382992" d="M121.968 6.41937H128.586V10.7872C128.586 12.0299 127.578 13.0373 126.336 13.0373H121.968V6.41937Z" fill="#356697"/>
</g>
<g id="Group_18">
<path id="rect-3382992_8" d="M57.9724 12.8387H51.3545V19.4566H57.9724V12.8387Z" fill="#356697"/>
</g>
<g id="Group_19">
<path id="r-3382992_2" d="M70.8115 19.4567H66.4437C65.201 19.4567 64.1936 18.4493 64.1936 17.2066V15.0888C64.1936 13.8462 65.201 12.8388 66.4437 12.8388H70.8115V19.4567Z" fill="#356697"/>
</g>
<g id="Group_20">
<path id="rect-3382992_9" d="M77.2312 12.8387H70.6133V19.4566H77.2312V12.8387Z" fill="#356697"/>
</g>
<g id="Group_21">
<path id="n_rb-3382992_2" d="M81.6318 19.3243V19.4566H83.6503V17.4382H83.5179C83.5179 18.4838 82.6708 19.3243 81.6318 19.3243Z" fill="#356697"/>
</g>
<g id="Group_22">
<path id="rect-3382992_10" d="M90.0701 12.8387H83.4521V19.4566H90.0701V12.8387Z" fill="#356697"/>
</g>
<g id="Group_23">
<path id="r-3382992_3" d="M102.908 19.4567H98.5404C97.2977 19.4567 96.2903 18.4493 96.2903 17.2066V15.0888C96.2903 13.8462 97.2977 12.8388 98.5404 12.8388H102.908V19.4567Z" fill="#356697"/>
</g>
<g id="Group_24">
<path id="l-3382992_2" d="M102.71 19.4567V12.8388H107.078C108.32 12.8388 109.328 13.8462 109.328 15.0888V19.4567H102.71Z" fill="#356697"/>
</g>
<g id="Group_25">
<path id="rect-3382992_11" d="M57.9724 19.2581H51.3545V25.876H57.9724V19.2581Z" fill="#356697"/>
</g>
<g id="Group_26">
<path id="rt-3382992_2" d="M77.2314 19.2581V25.876H72.8636C71.6209 25.876 70.6135 24.8686 70.6135 23.6259V19.2581H77.2314Z" fill="#356697"/>
</g>
<g id="Group_27">
<path id="rect-3382992_12" d="M83.6501 19.2581H77.0322V25.876H83.6501V19.2581Z" fill="#356697"/>
</g>
<g id="Group_28">
<path id="rect-3382992_13" d="M90.0701 19.2581H83.4521V25.876H90.0701V19.2581Z" fill="#356697"/>
</g>
<g id="Group_29">
<path id="rb-3382992_2" d="M122.167 25.876H115.549V21.5082C115.549 20.2655 116.556 19.2581 117.799 19.2581H122.167V25.876Z" fill="#356697"/>
</g>
<g id="Group_30">
<path id="lb-3382992_2" d="M121.968 25.876V19.2581H126.336C127.578 19.2581 128.586 20.2655 128.586 21.5082V25.876H121.968Z" fill="#356697"/>
</g>
<g id="Group_31">
<path id="rt-3382992_3" d="M57.9727 25.6775V32.2954H53.6048C52.3622 32.2954 51.3548 31.288 51.3548 30.0453V25.6775H57.9727Z" fill="#356697"/>
</g>
<g id="Group_32">
<path id="lb-3382992_3" d="M57.7744 32.2954V25.6775H62.1422C63.3849 25.6775 64.3923 26.6849 64.3923 27.9276V32.2954H57.7744Z" fill="#356697"/>
</g>
<g id="Group_33">
<path id="rt-3382992_4" d="M83.6504 25.6775V32.2954H79.2826C78.0399 32.2954 77.0325 31.288 77.0325 30.0453V25.6775H83.6504Z" fill="#356697"/>
</g>
<g id="Group_34">
<path id="rect-3382992_14" d="M90.0701 25.6775H83.4521V32.2954H90.0701V25.6775Z" fill="#356697"/>
</g>
<g id="Group_35">
<path id="rect-3382992_15" d="M96.489 25.6775H89.8711V32.2954H96.489V25.6775Z" fill="#356697"/>
</g>
<g id="Group_36">
<path id="lb-3382992_4" d="M96.29 32.2954V25.6775H100.658C101.901 25.6775 102.908 26.6849 102.908 27.9276V32.2954H96.29Z" fill="#356697"/>
</g>
<g id="Group_37">
<path id="rt-3382992_5" d="M122.167 25.6775V32.2954H117.799C116.556 32.2954 115.549 31.288 115.549 30.0453V25.6775H122.167Z" fill="#356697"/>
</g>
<g id="Group_38">
<path id="rect-3382992_16" d="M128.586 25.6775H121.968V32.2954H128.586V25.6775Z" fill="#356697"/>
</g>
<g id="Group_39">
<path id="t-3382992" d="M64.3926 32.0968V36.4646C64.3926 37.7073 63.3852 38.7147 62.1425 38.7147H60.0248C58.7821 38.7147 57.7747 37.7073 57.7747 36.4646V32.0968H64.3926Z" fill="#356697"/>
</g>
<g id="Group_40">
<path id="t-3382992_2" d="M90.0703 32.0968V36.4646C90.0703 37.7073 89.0629 38.7147 87.8202 38.7147H85.7025C84.4598 38.7147 83.4524 37.7073 83.4524 36.4646V32.0968H90.0703Z" fill="#356697"/>
</g>
<g id="Group_41">
<path id="t-3382992_3" d="M102.908 32.0968V36.4646C102.908 37.7073 101.901 38.7147 100.658 38.7147H98.5404C97.2977 38.7147 96.2903 37.7073 96.2903 36.4646V32.0968H102.908Z" fill="#356697"/>
</g>
<g id="Group_42">
<path id="empty-3382992" d="M109.129 33.9895V36.8286C109.129 37.8742 109.976 38.7147 111.022 38.7147H113.861C114.913 38.7147 115.753 37.8676 115.753 36.822V33.9895C115.747 32.9373 114.9 32.0968 113.854 32.0968H111.022C109.976 32.0968 109.129 32.9439 109.129 33.9895Z" fill="#356697"/>
</g>
<g id="Group_43">
<path id="t-3382992_4" d="M128.586 32.0968V36.4646C128.586 37.7073 127.579 38.7147 126.336 38.7147H124.218C122.975 38.7147 121.968 37.7073 121.968 36.4646V32.0968H128.586Z" fill="#356697"/>
</g>
<g id="Group_44">
<path id="b-3382992_3" d="M51.3545 45.1341V40.7663C51.3545 39.5236 52.3619 38.5162 53.6046 38.5162H55.7223C56.965 38.5162 57.9724 39.5236 57.9724 40.7663V45.1341H51.3545Z" fill="#356697"/>
</g>
<g id="Group_45">
<path id="empty-3382992_2" d="M64.1934 40.4089V43.248C64.1934 44.2936 65.0405 45.1341 66.0861 45.1341H68.9252C69.9774 45.1341 70.8179 44.287 70.8179 43.2414V40.4089C70.8113 39.3566 69.9642 38.5162 68.9185 38.5162H66.0861C65.0405 38.5162 64.1934 39.3633 64.1934 40.4089Z" fill="#356697"/>
</g>
<g id="Group_46">
<path id="n_rb-3382992_3" d="M75.2129 45.0018V45.1341H77.2314V43.1157H77.099C77.099 44.1613 76.2519 45.0018 75.2129 45.0018Z" fill="#356697"/>
</g>
<g id="Group_47">
<path id="b-3382992_4" d="M77.0322 45.1341V40.7663C77.0322 39.5236 78.0396 38.5162 79.2823 38.5162H81.4C82.6427 38.5162 83.6501 39.5236 83.6501 40.7663V45.1341H77.0322Z" fill="#356697"/>
</g>
<g id="Group_48">
<path id="n_rb-3382992_4" d="M88.0508 45.0018V45.1341H90.0692V43.1157H89.9369C89.9369 44.1613 89.0898 45.0018 88.0508 45.0018Z" fill="#356697"/>
</g>
<g id="Group_49">
<path id="b-3382992_5" d="M89.8711 45.1341V40.7663C89.8711 39.5236 90.8785 38.5162 92.1212 38.5162H94.2389C95.4816 38.5162 96.489 39.5236 96.489 40.7663V45.1341H89.8711Z" fill="#356697"/>
</g>
<g id="Group_50">
<path id="b-3382992_6" d="M102.71 45.1341V40.7663C102.71 39.5236 103.717 38.5162 104.96 38.5162H107.078C108.32 38.5162 109.328 39.5236 109.328 40.7663V45.1341H102.71Z" fill="#356697"/>
</g>
<g id="Group_51">
<path id="n_rb-3382992_5" d="M113.729 45.0018V45.1341H115.747V43.1157H115.615C115.615 44.1613 114.768 45.0018 113.729 45.0018Z" fill="#356697"/>
</g>
<g id="Group_52">
<path id="b-3382992_7" d="M115.549 45.1341V40.7663C115.549 39.5236 116.556 38.5162 117.799 38.5162H119.917C121.159 38.5162 122.167 39.5236 122.167 40.7663V45.1341H115.549Z" fill="#356697"/>
</g>
<g id="Group_53">
<path id="b-3382992_8" d="M128.388 45.1341V40.7663C128.388 39.5236 129.395 38.5162 130.638 38.5162H132.756C133.998 38.5162 135.006 39.5236 135.006 40.7663V45.1341H128.388Z" fill="#356697"/>
</g>
<g id="Group_54">
<path id="t-3382992_5" d="M57.9727 44.9355V49.3034C57.9727 50.5461 56.9653 51.5534 55.7226 51.5534H53.6048C52.3622 51.5534 51.3548 50.5461 51.3548 49.3034V44.9355H57.9727Z" fill="#356697"/>
</g>
<g id="Group_55">
<path id="r-3382992_4" d="M77.2314 51.5535H72.8636C71.6209 51.5535 70.6135 50.5461 70.6135 49.3034V47.1857C70.6135 45.943 71.6209 44.9356 72.8636 44.9356H77.2314V51.5535Z" fill="#356697"/>
</g>
<g id="Group_56">
<path id="rect-3382992_17" d="M83.6501 44.9355H77.0322V51.5534H83.6501V44.9355Z" fill="#356697"/>
</g>
<g id="Group_57">
<path id="rect-3382992_18" d="M90.0701 44.9355H83.4521V51.5534H90.0701V44.9355Z" fill="#356697"/>
</g>
<g id="Group_58">
<path id="rect-3382992_19" d="M96.489 44.9355H89.8711V51.5534H96.489V44.9355Z" fill="#356697"/>
</g>
<g id="Group_59">
<path id="rect-3382992_20" d="M109.328 44.9355H102.71V51.5534H109.328V44.9355Z" fill="#356697"/>
</g>
<g id="Group_60">
<path id="rect-3382992_21" d="M115.747 44.9355H109.129V51.5534H115.747V44.9355Z" fill="#356697"/>
</g>
<g id="Group_61">
<path id="lt-3382992_2" d="M115.549 44.9355H122.167V49.3034C122.167 50.5461 121.159 51.5534 119.917 51.5534H115.549V44.9355Z" fill="#356697"/>
</g>
<g id="Group_62">
<path id="t-3382992_6" d="M135.006 44.9355V49.3034C135.006 50.5461 133.998 51.5534 132.756 51.5534H130.638C129.395 51.5534 128.388 50.5461 128.388 49.3034V44.9355H135.006Z" fill="#356697"/>
</g>
<g id="Group_63">
<path id="r-3382992_5" d="M13.0371 57.9728H8.66929C7.4266 57.9728 6.41921 56.9654 6.41921 55.7228L6.41921 53.605C6.41921 52.3623 7.4266 51.3549 8.66929 51.3549H13.0371V57.9728Z" fill="#356697"/>
</g>
<g id="Group_64">
<path id="l-3382992_3" d="M12.8389 57.9728V51.3549H17.2067C18.4494 51.3549 19.4568 52.3623 19.4568 53.605V57.9728H12.8389Z" fill="#356697"/>
</g>
<g id="Group_65">
<path id="empty-3382992_3" d="M25.6777 53.2476V56.0867C25.6777 57.1323 26.5248 57.9728 27.5705 57.9728H30.4095C31.4618 57.9728 32.3023 57.1257 32.3023 56.0801V53.2476C32.2956 52.1954 31.4485 51.3549 30.4029 51.3549H27.5705C26.5248 51.3549 25.6777 52.202 25.6777 53.2476Z" fill="#356697"/>
</g>
<g id="Group_66">
<path id="r-3382992_6" d="M45.1348 57.9728H40.7669C39.5243 57.9728 38.5169 56.9654 38.5169 55.7228V53.605C38.5169 52.3623 39.5243 51.3549 40.7669 51.3549H45.1348V57.9728Z" fill="#356697"/>
</g>
<g id="Group_67">
<path id="l-3382992_4" d="M44.9355 57.9728V51.3549H49.3034C50.5461 51.3549 51.5534 52.3623 51.5534 53.605V57.9728H44.9355Z" fill="#356697"/>
</g>
<g id="Group_68">
<path id="empty-3382992_4" d="M64.1934 53.2476V56.0867C64.1934 57.1323 65.0405 57.9728 66.0861 57.9728H68.9252C69.9774 57.9728 70.8179 57.1257 70.8179 56.0801V53.2476C70.8113 52.1954 69.9642 51.3549 68.9185 51.3549H66.0861C65.0405 51.3549 64.1934 52.202 64.1934 53.2476Z" fill="#356697"/>
</g>
<g id="Group_69">
<path id="rect-3382992_22" d="M96.489 51.3549H89.8711V57.9728H96.489V51.3549Z" fill="#356697"/>
</g>
<g id="Group_70">
<path id="rect-3382992_23" d="M109.328 51.3549H102.71V57.9728H109.328V51.3549Z" fill="#356697"/>
</g>
<g id="Group_71">
<path id="rect-3382992_24" d="M115.747 51.3549H109.129V57.9728H115.747V51.3549Z" fill="#356697"/>
</g>
<g id="Group_72">
<path id="empty-3382992_5" d="M121.968 53.2476V56.0867C121.968 57.1323 122.815 57.9728 123.86 57.9728H126.7C127.752 57.9728 128.592 57.1257 128.592 56.0801V53.2476C128.586 52.1954 127.739 51.3549 126.693 51.3549H123.86C122.815 51.3549 121.968 52.202 121.968 53.2476Z" fill="#356697"/>
</g>
<g id="Group_73">
<path id="n_rb-3382992_6" d="M139.406 57.8404V57.9728H141.425V55.9543H141.292C141.292 57 140.445 57.8404 139.406 57.8404Z" fill="#356697"/>
</g>
<g id="Group_74">
<path id="b-3382992_9" d="M141.226 57.9728V53.605C141.226 52.3623 142.233 51.3549 143.476 51.3549H145.593C146.836 51.3549 147.843 52.3623 147.843 53.605V57.9728H141.226Z" fill="#356697"/>
</g>
<g id="Group_75">
<path id="r-3382992_7" d="M160.683 57.9728H156.315C155.072 57.9728 154.065 56.9654 154.065 55.7228V53.605C154.065 52.3623 155.072 51.3549 156.315 51.3549H160.683V57.9728Z" fill="#356697"/>
</g>
<g id="Group_76">
<path id="rect-3382992_25" d="M167.102 51.3549H160.484V57.9728H167.102V51.3549Z" fill="#356697"/>
</g>
<g id="Group_77">
<path id="rect-3382992_26" d="M173.521 51.3549H166.903V57.9728H173.521V51.3549Z" fill="#356697"/>
</g>
<g id="Group_78">
<path id="rect-3382992_27" d="M179.941 51.3549H173.323V57.9728H179.941V51.3549Z" fill="#356697"/>
</g>
<g id="Group_79">
<path id="lb-3382992_5" d="M179.742 57.9728V51.3549H184.11C185.353 51.3549 186.36 52.3623 186.36 53.605V57.9728H179.742Z" fill="#356697"/>
</g>
<g id="Group_80">
<path id="b-3382992_10" d="M19.2578 64.3922V60.0244C19.2578 58.7817 20.2652 57.7743 21.5079 57.7743H23.6256C24.8683 57.7743 25.8757 58.7817 25.8757 60.0244V64.3922H19.2578Z" fill="#356697"/>
</g>
<g id="Group_81">
<path id="r-3382992_8" d="M77.2314 64.3922H72.8636C71.6209 64.3922 70.6135 63.3848 70.6135 62.1421V60.0244C70.6135 58.7817 71.6209 57.7743 72.8636 57.7743H77.2314V64.3922Z" fill="#356697"/>
</g>
<g id="Group_82">
<path id="l-3382992_5" d="M77.0322 64.3922V57.7743H81.4C82.6427 57.7743 83.6501 58.7817 83.6501 60.0244V64.3922H77.0322Z" fill="#356697"/>
</g>
<g id="Group_83">
<path id="t-3382992_7" d="M96.4893 57.7743V62.1421C96.4893 63.3848 95.4819 64.3922 94.2392 64.3922H92.1214C90.8788 64.3922 89.8714 63.3848 89.8714 62.1421V57.7743H96.4893Z" fill="#356697"/>
</g>
<g id="Group_84">
<path id="rect-3382992_28" d="M109.328 57.7743H102.71V64.3922H109.328V57.7743Z" fill="#356697"/>
</g>
<g id="Group_85">
<path id="lt-3382992_3" d="M109.129 57.7743H115.747V62.1421C115.747 63.3848 114.739 64.3922 113.497 64.3922H109.129V57.7743Z" fill="#356697"/>
</g>
<g id="Group_86">
<path id="r-3382992_9" d="M135.006 64.3922H130.638C129.395 64.3922 128.388 63.3848 128.388 62.1421V60.0244C128.388 58.7817 129.395 57.7743 130.638 57.7743H135.006V64.3922Z" fill="#356697"/>
</g>
<g id="Group_87">
<path id="rect-3382992_29" d="M141.425 57.7743H134.807V64.3922H141.425V57.7743Z" fill="#356697"/>
</g>
<g id="Group_88">
<path id="lt-3382992_4" d="M141.226 57.7743H147.843V62.1421C147.843 63.3848 146.836 64.3922 145.593 64.3922H141.226V57.7743Z" fill="#356697"/>
</g>
<g id="Group_89">
<path id="rect-3382992_30" d="M186.36 57.7743H179.742V64.3922H186.36V57.7743Z" fill="#356697"/>
</g>
<g id="Group_90">
<path id="b-3382992_11" d="M0 70.8116L0 66.4438C0 65.2011 1.0074 64.1937 2.25009 64.1937H4.36782C5.6105 64.1937 6.6179 65.2011 6.6179 66.4438V70.8116H0Z" fill="#356697"/>
</g>
<g id="Group_91">
<path id="n_rb-3382992_7" d="M17.4385 70.6792V70.8116H19.4569V68.7931H19.3246C19.3246 69.8387 18.4775 70.6792 17.4385 70.6792Z" fill="#356697"/>
</g>
<g id="Group_92">
<path id="rect-3382992_31" d="M25.8757 64.1937H19.2578V70.8116H25.8757V64.1937Z" fill="#356697"/>
</g>
<g id="Group_93">
<path id="r-3382992_10" d="M45.1348 70.8116H40.7669C39.5243 70.8116 38.5169 69.8042 38.5169 68.5615V66.4438C38.5169 65.2011 39.5243 64.1937 40.7669 64.1937H45.1348V70.8116Z" fill="#356697"/>
</g>
<g id="Group_94">
<path id="lb-3382992_6" d="M44.9355 70.8116V64.1937H49.3034C50.5461 64.1937 51.5534 65.2011 51.5534 66.4438V70.8116H44.9355Z" fill="#356697"/>
</g>
<g id="Group_95">
<path id="n_rb-3382992_8" d="M81.6318 70.6792V70.8116H83.6503V68.7931H83.5179C83.5179 69.8387 82.6708 70.6792 81.6318 70.6792Z" fill="#356697"/>
</g>
<g id="Group_96">
<path id="b-3382992_12" d="M83.4521 70.8116V66.4438C83.4521 65.2011 84.4595 64.1937 85.7022 64.1937H87.82C89.0627 64.1937 90.0701 65.2011 90.0701 66.4438V70.8116H83.4521Z" fill="#356697"/>
</g>
<g id="Group_97">
<path id="t-3382992_8" d="M109.328 64.1937V68.5615C109.328 69.8042 108.321 70.8116 107.078 70.8116H104.96C103.718 70.8116 102.71 69.8042 102.71 68.5615V64.1937H109.328Z" fill="#356697"/>
</g>
<g id="Group_98">
<path id="r-3382992_11" d="M173.521 70.8116H169.154C167.911 70.8116 166.904 69.8042 166.904 68.5615V66.4438C166.904 65.2011 167.911 64.1937 169.154 64.1937H173.521V70.8116Z" fill="#356697"/>
</g>
<g id="Group_99">
<path id="rect-3382992_32" d="M179.941 64.1937H173.323V70.8116H179.941V64.1937Z" fill="#356697"/>
</g>
<g id="Group_100">
<path id="lt-3382992_5" d="M179.742 64.1937H186.36V68.5615C186.36 69.8042 185.353 70.8116 184.11 70.8116H179.742V64.1937Z" fill="#356697"/>
</g>
<g id="Group_101">
<path id="rt-3382992_6" d="M6.61816 70.613V77.2309H2.25035C1.00766 77.2309 0.000261307 76.2235 0.000261307 74.9809V70.613H6.61816Z" fill="#356697"/>
</g>
<g id="Group_102">
<path id="rect-3382992_33" d="M13.0368 70.613H6.41895V77.2309H13.0368V70.613Z" fill="#356697"/>
</g>
<g id="Group_103">
<path id="rect-3382992_34" d="M19.4568 70.613H12.8389V77.2309H19.4568V70.613Z" fill="#356697"/>
</g>
<g id="Group_104">
<path id="rect-3382992_35" d="M25.8757 70.613H19.2578V77.2309H25.8757V70.613Z" fill="#356697"/>
</g>
<g id="Group_105">
<path id="lb-3382992_7" d="M25.6777 77.231V70.6131H30.0456C31.2882 70.6131 32.2956 71.6205 32.2956 72.8631V77.231H25.6777Z" fill="#356697"/>
</g>
<g id="Group_106">
<path id="rt-3382992_7" d="M51.5537 70.613V77.2309H47.1859C45.9432 77.2309 44.9358 76.2235 44.9358 74.9809V70.613H51.5537Z" fill="#356697"/>
</g>
<g id="Group_107">
<path id="lb-3382992_8" d="M51.3545 77.231V70.6131H55.7223C56.965 70.6131 57.9724 71.6205 57.9724 72.8631V77.231H51.3545Z" fill="#356697"/>
</g>
<g id="Group_108">
<path id="n_rb-3382992_9" d="M75.2129 77.0986V77.2309H77.2314V75.2125H77.099C77.099 76.2581 76.2519 77.0986 75.2129 77.0986Z" fill="#356697"/>
</g>
<g id="Group_109">
<path id="rb-3382992_3" d="M83.6504 77.231H77.0325V72.8631C77.0325 71.6205 78.0399 70.6131 79.2826 70.6131H83.6504V77.231Z" fill="#356697"/>
</g>
<g id="Group_110">
<path id="rect-3382992_36" d="M90.0701 70.613H83.4521V77.2309H90.0701V70.613Z" fill="#356697"/>
</g>
<g id="Group_111">
<path id="b-3382992_13" d="M96.29 77.231V72.8631C96.29 71.6205 97.2974 70.6131 98.5401 70.6131H100.658C101.901 70.6131 102.908 71.6205 102.908 72.8631V77.231H96.29Z" fill="#356697"/>
</g>
<g id="Group_112">
<path id="rb-3382992_4" d="M115.747 77.231H109.129V72.8631C109.129 71.6205 110.137 70.6131 111.379 70.6131H115.747V77.231Z" fill="#356697"/>
</g>
<g id="Group_113">
<path id="rect-3382992_37" d="M122.167 70.613H115.549V77.2309H122.167V70.613Z" fill="#356697"/>
</g>
<g id="Group_114">
<path id="l-3382992_6" d="M121.968 77.231V70.6131H126.336C127.578 70.6131 128.586 71.6205 128.586 72.8631V77.231H121.968Z" fill="#356697"/>
</g>
<g id="Group_115">
<path id="r-3382992_12" d="M141.425 77.231H137.057C135.814 77.231 134.807 76.2236 134.807 74.9809V72.8631C134.807 71.6205 135.814 70.6131 137.057 70.6131H141.425V77.231Z" fill="#356697"/>
</g>
<g id="Group_116">
<path id="lb-3382992_9" d="M141.226 77.231V70.6131H145.593C146.836 70.6131 147.843 71.6205 147.843 72.8631V77.231H141.226Z" fill="#356697"/>
</g>
<g id="Group_117">
<path id="empty-3382992_6" d="M154.064 72.5058V75.3448C154.064 76.3905 154.912 77.2309 155.957 77.2309H158.796C159.849 77.2309 160.689 76.3838 160.689 75.3382V72.5058C160.682 71.4535 159.835 70.613 158.79 70.613H155.957C154.912 70.613 154.064 71.4601 154.064 72.5058Z" fill="#356697"/>
</g>
<g id="Group_118">
<path id="t-3382992_9" d="M179.941 70.613V74.9809C179.941 76.2235 178.934 77.2309 177.691 77.2309H175.574C174.331 77.2309 173.324 76.2235 173.324 74.9809V70.613H179.941Z" fill="#356697"/>
</g>
<g id="Group_119">
<path id="t-3382992_10" d="M13.0371 77.0324V81.4002C13.0371 82.6429 12.0297 83.6503 10.787 83.6503H8.66929C7.4266 83.6503 6.41921 82.6429 6.41921 81.4002V77.0324H13.0371Z" fill="#356697"/>
</g>
<g id="Group_120">
<path id="rt-3382992_8" d="M25.876 77.0324V83.6503H21.5082C20.2655 83.6503 19.2581 82.6429 19.2581 81.4002V77.0324H25.876Z" fill="#356697"/>
</g>
<g id="Group_121">
<path id="rect-3382992_38" d="M32.2956 77.0324H25.6777V83.6503H32.2956V77.0324Z" fill="#356697"/>
</g>
<g id="Group_122">
<path id="rect-3382992_39" d="M38.7146 77.0324H32.0967V83.6503H38.7146V77.0324Z" fill="#356697"/>
</g>
<g id="Group_123">
<path id="l-3382992_7" d="M38.5166 83.6503V77.0324H42.8844C44.1271 77.0324 45.1345 78.0398 45.1345 79.2825V83.6503H38.5166Z" fill="#356697"/>
</g>
<g id="Group_124">
<path id="rect-3382992_40" d="M57.9724 77.0324H51.3545V83.6503H57.9724V77.0324Z" fill="#356697"/>
</g>
<g id="Group_125">
<path id="n_rb-3382992_10" d="M68.793 83.5179V83.6503H70.8114V81.6318H70.6791C70.6791 82.6775 69.832 83.5179 68.793 83.5179Z" fill="#356697"/>
</g>
<g id="Group_126">
<path id="rb-3382992_5" d="M77.2314 83.6503H70.6135V79.2825C70.6135 78.0398 71.6209 77.0324 72.8636 77.0324H77.2314V83.6503Z" fill="#356697"/>
</g>
<g id="Group_127">
<path id="rect-3382992_41" d="M83.6501 77.0324H77.0322V83.6503H83.6501V77.0324Z" fill="#356697"/>
</g>
<g id="Group_128">
<path id="lt-3382992_6" d="M83.4521 77.0324H90.0701V81.4002C90.0701 82.6429 89.0627 83.6503 87.82 83.6503H83.4521V77.0324Z" fill="#356697"/>
</g>
<g id="Group_129">
<path id="n_rb-3382992_11" d="M94.4707 83.5179V83.6503H96.4892V81.6318H96.3568C96.3568 82.6775 95.5097 83.5179 94.4707 83.5179Z" fill="#356697"/>
</g>
<g id="Group_130">
<path id="rect-3382992_42" d="M102.908 77.0324H96.29V83.6503H102.908V77.0324Z" fill="#356697"/>
</g>
<g id="Group_131">
<path id="rt-3382992_9" d="M115.747 77.0324V83.6503H111.379C110.137 83.6503 109.129 82.6429 109.129 81.4002V77.0324H115.747Z" fill="#356697"/>
</g>
<g id="Group_132">
<path id="lt-3382992_7" d="M115.549 77.0324H122.167V81.4002C122.167 82.6429 121.159 83.6503 119.917 83.6503H115.549V77.0324Z" fill="#356697"/>
</g>
<g id="Group_133">
<path id="empty-3382992_7" d="M128.388 78.9251V81.7642C128.388 82.8098 129.235 83.6503 130.28 83.6503H133.119C134.172 83.6503 135.012 82.8032 135.012 81.7576V78.9251C135.006 77.8729 134.159 77.0324 133.113 77.0324H130.28C129.235 77.0324 128.388 77.8795 128.388 78.9251Z" fill="#356697"/>
</g>
<g id="Group_134">
<path id="rect-3382992_43" d="M147.843 77.0324H141.226V83.6503H147.843V77.0324Z" fill="#356697"/>
</g>
<g id="Group_135">
<path id="lb-3382992_10" d="M147.646 83.6503V77.0324H152.013C153.256 77.0324 154.263 78.0398 154.263 79.2825V83.6503H147.646Z" fill="#356697"/>
</g>
<g id="Group_136">
<path id="empty-3382992_8" d="M160.484 78.9251V81.7642C160.484 82.8098 161.331 83.6503 162.377 83.6503H165.216C166.268 83.6503 167.109 82.8032 167.109 81.7576V78.9251C167.102 77.8729 166.255 77.0324 165.21 77.0324H162.377C161.331 77.0324 160.484 77.8795 160.484 78.9251Z" fill="#356697"/>
</g>
<g id="Group_137">
<path id="t-3382992_11" d="M32.2959 83.4518V87.8196C32.2959 89.0623 31.2885 90.0697 30.0458 90.0697H27.9281C26.6854 90.0697 25.678 89.0623 25.678 87.8196V83.4518H32.2959Z" fill="#356697"/>
</g>
<g id="Group_138">
<path id="r-3382992_13" d="M51.5537 90.0697H47.1859C45.9432 90.0697 44.9358 89.0623 44.9358 87.8196V85.7019C44.9358 84.4592 45.9432 83.4518 47.1859 83.4518H51.5537V90.0697Z" fill="#356697"/>
</g>
<g id="Group_139">
<path id="rect-3382992_44" d="M57.9724 83.4518H51.3545V90.0697H57.9724V83.4518Z" fill="#356697"/>
</g>
<g id="Group_140">
<path id="n_rb-3382992_12" d="M62.374 89.9373V90.0697H64.3925V88.0512H64.2601C64.2601 89.0968 63.413 89.9373 62.374 89.9373Z" fill="#356697"/>
</g>
<g id="Group_141">
<path id="rb-3382992_6" d="M70.8115 90.0697H64.1936V85.7019C64.1936 84.4592 65.201 83.4518 66.4437 83.4518H70.8115V90.0697Z" fill="#356697"/>
</g>
<g id="Group_142">
<path id="rect-3382992_45" d="M77.2312 83.4518H70.6133V90.0697H77.2312V83.4518Z" fill="#356697"/>
</g>
<g id="Group_143">
<path id="n_rb-3382992_13" d="M88.0508 89.9373V90.0697H90.0692V88.0512H89.9369C89.9369 89.0968 89.0898 89.9373 88.0508 89.9373Z" fill="#356697"/>
</g>
<g id="Group_144">
<path id="rb-3382992_7" d="M96.4893 90.0697H89.8714V85.7019C89.8714 84.4592 90.8788 83.4518 92.1214 83.4518H96.4893V90.0697Z" fill="#356697"/>
</g>
<g id="Group_145">
<path id="rect-3382992_46" d="M102.908 83.4518H96.29V90.0697H102.908V83.4518Z" fill="#356697"/>
</g>
<g id="Group_146">
<path id="lb-3382992_11" d="M102.71 90.0697V83.4518H107.078C108.32 83.4518 109.328 84.4592 109.328 85.7019V90.0697H102.71Z" fill="#356697"/>
</g>
<g id="Group_147">
<path id="r-3382992_14" d="M141.425 90.0697H137.057C135.814 90.0697 134.807 89.0623 134.807 87.8196V85.7019C134.807 84.4592 135.814 83.4518 137.057 83.4518H141.425V90.0697Z" fill="#356697"/>
</g>
<g id="Group_148">
<path id="rect-3382992_47" d="M147.843 83.4518H141.226V90.0697H147.843V83.4518Z" fill="#356697"/>
</g>
<g id="Group_149">
<path id="rect-3382992_48" d="M154.263 83.4518H147.646V90.0697H154.263V83.4518Z" fill="#356697"/>
</g>
<g id="Group_150">
<path id="n_rb-3382992_14" d="M171.503 89.9373V90.0697H173.521V88.0512H173.389C173.389 89.0968 172.542 89.9373 171.503 89.9373Z" fill="#356697"/>
</g>
<g id="Group_151">
<path id="rb-3382992_8" d="M179.941 90.0697H173.324V85.7019C173.324 84.4592 174.331 83.4518 175.574 83.4518H179.941V90.0697Z" fill="#356697"/>
</g>
<g id="Group_152">
<path id="lb-3382992_12" d="M179.742 90.0697V83.4518H184.11C185.353 83.4518 186.36 84.4592 186.36 85.7019V90.0697H179.742Z" fill="#356697"/>
</g>
<g id="Group_153">
<path id="b-3382992_14" d="M0 96.489L0 92.1212C0 90.8785 1.0074 89.8711 2.25009 89.8711H4.36782C5.6105 89.8711 6.6179 90.8785 6.6179 92.1212V96.489H0Z" fill="#356697"/>
</g>
<g id="Group_154">
<path id="rb-3382992_9" d="M19.457 96.489H12.8391V92.1212C12.8391 90.8785 13.8465 89.8711 15.0892 89.8711H19.457V96.489Z" fill="#356697"/>
</g>
<g id="Group_155">
<path id="l-3382992_8" d="M19.2578 96.489V89.8711H23.6256C24.8683 89.8711 25.8757 90.8785 25.8757 92.1212V96.489H19.2578Z" fill="#356697"/>
</g>
<g id="Group_156">
<path id="empty-3382992_9" d="M38.5166 91.7638V94.6029C38.5166 95.6485 39.3637 96.489 40.4093 96.489H43.2484C44.3006 96.489 45.1411 95.6419 45.1411 94.5963V91.7638C45.1345 90.7116 44.2874 89.8711 43.2418 89.8711H40.4093C39.3637 89.8711 38.5166 90.7182 38.5166 91.7638Z" fill="#356697"/>
</g>
<g id="Group_157">
<path id="rt-3382992_10" d="M57.9727 89.8711V96.489H53.6048C52.3622 96.489 51.3548 95.4816 51.3548 94.2389V89.8711H57.9727Z" fill="#356697"/>
</g>
<g id="Group_158">
<path id="rect-3382992_49" d="M64.3923 89.8711H57.7744V96.489H64.3923V89.8711Z" fill="#356697"/>
</g>
<g id="Group_159">
<path id="rect-3382992_50" d="M70.8113 89.8711H64.1934V96.489H70.8113V89.8711Z" fill="#356697"/>
</g>
<g id="Group_160">
<path id="lt-3382992_8" d="M70.6133 89.8711H77.2312V94.2389C77.2312 95.4816 76.2238 96.489 74.9811 96.489H70.6133V89.8711Z" fill="#356697"/>
</g>
<g id="Group_161">
<path id="n_rb-3382992_15" d="M81.6318 96.3567V96.489H83.6503V94.4706H83.5179C83.5179 95.5162 82.6708 96.3567 81.6318 96.3567Z" fill="#356697"/>
</g>
<g id="Group_162">
<path id="rb-3382992_10" d="M90.0703 96.489H83.4524V92.1212C83.4524 90.8785 84.4598 89.8711 85.7025 89.8711H90.0703V96.489Z" fill="#356697"/>
</g>
<g id="Group_163">
<path id="rect-3382992_51" d="M96.489 89.8711H89.8711V96.489H96.489V89.8711Z" fill="#356697"/>
</g>
<g id="Group_164">
<path id="t-3382992_12" d="M109.328 89.8711V94.2389C109.328 95.4816 108.321 96.489 107.078 96.489H104.96C103.718 96.489 102.71 95.4816 102.71 94.2389V89.8711H109.328Z" fill="#356697"/>
</g>
<g id="Group_165">
<path id="n_rb-3382992_16" d="M126.567 96.3567V96.489H128.586V94.4706H128.453C128.453 95.5162 127.606 96.3567 126.567 96.3567Z" fill="#356697"/>
</g>
<g id="Group_166">
<path id="b-3382992_15" d="M128.388 96.489V92.1212C128.388 90.8785 129.395 89.8711 130.638 89.8711H132.756C133.998 89.8711 135.006 90.8785 135.006 92.1212V96.489H128.388Z" fill="#356697"/>
</g>
<g id="Group_167">
<path id="rt-3382992_11" d="M147.844 89.8711V96.489H143.476C142.233 96.489 141.226 95.4816 141.226 94.2389V89.8711H147.844Z" fill="#356697"/>
</g>
<g id="Group_168">
<path id="rect-3382992_52" d="M154.263 89.8711H147.646V96.489H154.263V89.8711Z" fill="#356697"/>
</g>
<g id="Group_169">
<path id="r-3382992_15" d="M173.521 96.489H169.154C167.911 96.489 166.904 95.4816 166.904 94.2389V92.1212C166.904 90.8785 167.911 89.8711 169.154 89.8711H173.521V96.489Z" fill="#356697"/>
</g>
<g id="Group_170">
<path id="rect-3382992_53" d="M179.941 89.8711H173.323V96.489H179.941V89.8711Z" fill="#356697"/>
</g>
<g id="Group_171">
<path id="rect-3382992_54" d="M186.36 89.8711H179.742V96.489H186.36V89.8711Z" fill="#356697"/>
</g>
<g id="Group_172">
<path id="t-3382992_13" d="M6.61816 96.2905V100.658C6.61816 101.901 5.61077 102.908 4.36808 102.908H2.25035C1.00766 102.908 0.000261307 101.901 0.000261307 100.658V96.2905H6.61816Z" fill="#356697"/>
</g>
<g id="Group_173">
<path id="n_rb-3382992_17" d="M11.0186 102.776V102.908H13.037V100.89H12.9047C12.9047 101.936 12.0576 102.776 11.0186 102.776Z" fill="#356697"/>
</g>
<g id="Group_174">
<path id="rect-3382992_55" d="M19.4568 96.2905H12.8389V102.908H19.4568V96.2905Z" fill="#356697"/>
</g>
<g id="Group_175">
<path id="n_rb-3382992_18" d="M23.8574 102.776V102.908H25.8759V100.89H25.7435C25.7435 101.936 24.8964 102.776 23.8574 102.776Z" fill="#356697"/>
</g>
<g id="Group_176">
<path id="b-3382992_16" d="M25.6777 102.908V98.5406C25.6777 97.2979 26.6851 96.2905 27.9278 96.2905H30.0456C31.2882 96.2905 32.2956 97.2979 32.2956 98.5406V102.908H25.6777Z" fill="#356697"/>
</g>
<g id="Group_177">
<path id="t-3382992_14" d="M70.8115 96.2905V100.658C70.8115 101.901 69.8041 102.908 68.5614 102.908H66.4437C65.201 102.908 64.1936 101.901 64.1936 100.658V96.2905H70.8115Z" fill="#356697"/>
</g>
<g id="Group_178">
<path id="r-3382992_16" d="M83.6504 102.908H79.2826C78.0399 102.908 77.0325 101.901 77.0325 100.658V98.5406C77.0325 97.2979 78.0399 96.2905 79.2826 96.2905H83.6504V102.908Z" fill="#356697"/>
</g>
<g id="Group_179">
<path id="rect-3382992_56" d="M90.0701 96.2905H83.4521V102.908H90.0701V96.2905Z" fill="#356697"/>
</g>
<g id="Group_180">
<path id="rect-3382992_57" d="M96.489 96.2905H89.8711V102.908H96.489V96.2905Z" fill="#356697"/>
</g>
<g id="Group_181">
<path id="lb-3382992_13" d="M96.29 102.908V96.2905H100.658C101.901 96.2905 102.908 97.2979 102.908 98.5406V102.908H96.29Z" fill="#356697"/>
</g>
<g id="Group_182">
<path id="b-3382992_17" d="M109.129 102.908V98.5406C109.129 97.2979 110.136 96.2905 111.379 96.2905H113.497C114.739 96.2905 115.747 97.2979 115.747 98.5406V102.908H109.129Z" fill="#356697"/>
</g>
<g id="Group_183">
<path id="r-3382992_17" d="M128.586 102.908H124.218C122.975 102.908 121.968 101.901 121.968 100.658V98.5406C121.968 97.2979 122.975 96.2905 124.218 96.2905H128.586V102.908Z" fill="#356697"/>
</g>
<g id="Group_184">
<path id="rect-3382992_58" d="M135.006 96.2905H128.388V102.908H135.006V96.2905Z" fill="#356697"/>
</g>
<g id="Group_185">
<path id="t-3382992_15" d="M154.264 96.2905V100.658C154.264 101.901 153.256 102.908 152.014 102.908H149.896C148.653 102.908 147.646 101.901 147.646 100.658V96.2905H154.264Z" fill="#356697"/>
</g>
<g id="Group_186">
<path id="t-3382992_16" d="M186.36 96.2905V100.658C186.36 101.901 185.353 102.908 184.11 102.908H181.993C180.75 102.908 179.742 101.901 179.742 100.658V96.2905H186.36Z" fill="#356697"/>
</g>
<g id="Group_187">
<path id="r-3382992_18" d="M13.0371 109.328H8.66929C7.4266 109.328 6.41921 108.32 6.41921 107.078L6.41921 104.96C6.41921 103.717 7.4266 102.71 8.66929 102.71H13.0371V109.328Z" fill="#356697"/>
</g>
<g id="Group_188">
<path id="rect-3382992_59" d="M19.4568 102.71H12.8389V109.328H19.4568V102.71Z" fill="#356697"/>
</g>
<g id="Group_189">
<path id="rect-3382992_60" d="M25.8757 102.71H19.2578V109.328H25.8757V102.71Z" fill="#356697"/>
</g>
<g id="Group_190">
<path id="rect-3382992_61" d="M32.2956 102.71H25.6777V109.328H32.2956V102.71Z" fill="#356697"/>
</g>
<g id="Group_191">
<path id="rect-3382992_62" d="M38.7146 102.71H32.0967V109.328H38.7146V102.71Z" fill="#356697"/>
</g>
<g id="Group_192">
<path id="rect-3382992_63" d="M45.1345 102.71H38.5166V109.328H45.1345V102.71Z" fill="#356697"/>
</g>
<g id="Group_193">
<path id="l-3382992_9" d="M44.9355 109.328V102.71H49.3034C50.5461 102.71 51.5534 103.717 51.5534 104.96V109.328H44.9355Z" fill="#356697"/>
</g>
<g id="Group_194">
<path id="n_rb-3382992_19" d="M55.9541 109.195V109.328H57.9726V107.309H57.8402C57.8402 108.355 56.9931 109.195 55.9541 109.195Z" fill="#356697"/>
</g>
<g id="Group_195">
<path id="b-3382992_18" d="M57.7744 109.328V104.96C57.7744 103.717 58.7818 102.71 60.0245 102.71H62.1422C63.3849 102.71 64.3923 103.717 64.3923 104.96V109.328H57.7744Z" fill="#356697"/>
</g>
<g id="Group_196">
<path id="rect-3382992_64" d="M90.0701 102.71H83.4521V109.328H90.0701V102.71Z" fill="#356697"/>
</g>
<g id="Group_197">
<path id="rect-3382992_65" d="M96.489 102.71H89.8711V109.328H96.489V102.71Z" fill="#356697"/>
</g>
<g id="Group_198">
<path id="rect-3382992_66" d="M102.908 102.71H96.29V109.328H102.908V102.71Z" fill="#356697"/>
</g>
<g id="Group_199">
<path id="t-3382992_17" d="M115.747 102.71V107.078C115.747 108.32 114.74 109.328 113.497 109.328H111.379C110.137 109.328 109.129 108.32 109.129 107.078V102.71H115.747Z" fill="#356697"/>
</g>
<g id="Group_200">
<path id="rect-3382992_67" d="M135.006 102.71H128.388V109.328H135.006V102.71Z" fill="#356697"/>
</g>
<g id="Group_201">
<path id="rect-3382992_68" d="M141.425 102.71H134.807V109.328H141.425V102.71Z" fill="#356697"/>
</g>
<g id="Group_202">
<path id="l-3382992_10" d="M141.226 109.328V102.71H145.593C146.836 102.71 147.843 103.717 147.843 104.96V109.328H141.226Z" fill="#356697"/>
</g>
<g id="Group_203">
<path id="empty-3382992_10" d="M160.484 104.603V107.442C160.484 108.487 161.331 109.328 162.377 109.328H165.216C166.268 109.328 167.109 108.481 167.109 107.435V104.603C167.102 103.55 166.255 102.71 165.21 102.71H162.377C161.331 102.71 160.484 103.557 160.484 104.603Z" fill="#356697"/>
</g>
<g id="Group_204">
<path id="b-3382992_19" d="M173.323 109.328V104.96C173.323 103.717 174.331 102.71 175.573 102.71H177.691C178.934 102.71 179.941 103.717 179.941 104.96V109.328H173.323Z" fill="#356697"/>
</g>
<g id="Group_205">
<path id="t-3382992_18" d="M25.876 109.129V113.497C25.876 114.74 24.8686 115.747 23.6259 115.747H21.5082C20.2655 115.747 19.2581 114.74 19.2581 113.497V109.129H25.876Z" fill="#356697"/>
</g>
<g id="Group_206">
<path id="t-3382992_19" d="M38.7148 109.129V113.497C38.7148 114.74 37.7074 115.747 36.4648 115.747H34.347C33.1043 115.747 32.0969 114.74 32.0969 113.497V109.129H38.7148Z" fill="#356697"/>
</g>
<g id="Group_207">
<path id="rb-3382992_11" d="M57.9727 115.747H51.3548V111.379C51.3548 110.137 52.3622 109.129 53.6048 109.129H57.9727V115.747Z" fill="#356697"/>
</g>
<g id="Group_208">
<path id="rect-3382992_69" d="M64.3923 109.129H57.7744V115.747H64.3923V109.129Z" fill="#356697"/>
</g>
<g id="Group_209">
<path id="n_rb-3382992_20" d="M75.2129 115.615V115.747H77.2314V113.729H77.099C77.099 114.774 76.2519 115.615 75.2129 115.615Z" fill="#356697"/>
</g>
<g id="Group_210">
<path id="rb-3382992_12" d="M83.6504 115.747H77.0325V111.379C77.0325 110.137 78.0399 109.129 79.2826 109.129H83.6504V115.747Z" fill="#356697"/>
</g>
<g id="Group_211">
<path id="lt-3382992_9" d="M83.4521 109.129H90.0701V113.497C90.0701 114.74 89.0627 115.747 87.82 115.747H83.4521V109.129Z" fill="#356697"/>
</g>
<g id="Group_212">
<path id="t-3382992_20" d="M102.908 109.129V113.497C102.908 114.74 101.901 115.747 100.658 115.747H98.5404C97.2977 115.747 96.2903 114.74 96.2903 113.497V109.129H102.908Z" fill="#356697"/>
</g>
<g id="Group_213">
<path id="empty-3382992_11" d="M115.549 111.022V113.861C115.549 114.907 116.396 115.747 117.442 115.747H120.281C121.333 115.747 122.173 114.9 122.173 113.854V111.022C122.167 109.97 121.32 109.129 120.274 109.129H117.442C116.396 109.129 115.549 109.976 115.549 111.022Z" fill="#356697"/>
</g>
<g id="Group_214">
<path id="rect-3382992_70" d="M135.006 109.129H128.388V115.747H135.006V109.129Z" fill="#356697"/>
</g>
<g id="Group_215">
<path id="n_rb-3382992_21" d="M171.503 115.615V115.747H173.521V113.729H173.389C173.389 114.774 172.542 115.615 171.503 115.615Z" fill="#356697"/>
</g>
<g id="Group_216">
<path id="rect-3382992_71" d="M179.941 109.129H173.323V115.747H179.941V109.129Z" fill="#356697"/>
</g>
<g id="Group_217">
<path id="lb-3382992_14" d="M179.742 115.747V109.129H184.11C185.353 109.129 186.36 110.137 186.36 111.379V115.747H179.742Z" fill="#356697"/>
</g>
<g id="Group_218">
<path id="empty-3382992_12" d="M0 117.441V120.28C0 121.326 0.847092 122.166 1.89272 122.166H4.7318C5.78405 122.166 6.62452 121.319 6.62452 120.274V117.441C6.6179 116.389 5.77081 115.549 4.72518 115.549H1.89272C0.847092 115.549 0 116.396 0 117.441Z" fill="#356697"/>
</g>
<g id="Group_219">
<path id="empty-3382992_13" d="M38.5166 117.441V120.28C38.5166 121.326 39.3637 122.166 40.4093 122.166H43.2484C44.3006 122.166 45.1411 121.319 45.1411 120.274V117.441C45.1345 116.389 44.2874 115.549 43.2418 115.549H40.4093C39.3637 115.549 38.5166 116.396 38.5166 117.441Z" fill="#356697"/>
</g>
<g id="Group_220">
<path id="n_rb-3382992_22" d="M49.5352 122.034V122.166H51.5536V120.148H51.4213C51.4213 121.194 50.5742 122.034 49.5352 122.034Z" fill="#356697"/>
</g>
<g id="Group_221">
<path id="rect-3382992_72" d="M57.9724 115.549H51.3545V122.166H57.9724V115.549Z" fill="#356697"/>
</g>
<g id="Group_222">
<path id="rect-3382992_73" d="M64.3923 115.549H57.7744V122.166H64.3923V115.549Z" fill="#356697"/>
</g>
<g id="Group_223">
<path id="rb-3382992_13" d="M77.2314 122.167H70.6135V117.799C70.6135 116.556 71.6209 115.549 72.8636 115.549H77.2314V122.167Z" fill="#356697"/>
</g>
<g id="Group_224">
<path id="lt-3382992_10" d="M77.0322 115.549H83.6501V119.916C83.6501 121.159 82.6427 122.166 81.4 122.166H77.0322V115.549Z" fill="#356697"/>
</g>
<g id="Group_225">
<path id="n_rb-3382992_23" d="M88.0508 122.034V122.166H90.0692V120.148H89.9369C89.9369 121.194 89.0898 122.034 88.0508 122.034Z" fill="#356697"/>
</g>
<g id="Group_226">
<path id="b-3382992_20" d="M89.8711 122.167V117.799C89.8711 116.556 90.8785 115.549 92.1212 115.549H94.2389C95.4816 115.549 96.489 116.556 96.489 117.799V122.167H89.8711Z" fill="#356697"/>
</g>
<g id="Group_227">
<path id="b-3382992_21" d="M109.129 122.167V117.799C109.129 116.556 110.136 115.549 111.379 115.549H113.497C114.739 115.549 115.747 116.556 115.747 117.799V122.167H109.129Z" fill="#356697"/>
</g>
<g id="Group_228">
<path id="rect-3382992_74" d="M135.006 115.549H128.388V122.166H135.006V115.549Z" fill="#356697"/>
</g>
<g id="Group_229">
<path id="l-3382992_11" d="M134.807 122.167V115.549H139.174C140.417 115.549 141.425 116.556 141.425 117.799V122.167H134.807Z" fill="#356697"/>
</g>
<g id="Group_230">
<path id="n_rb-3382992_24" d="M145.825 122.034V122.166H147.844V120.148H147.711C147.711 121.194 146.864 122.034 145.825 122.034Z" fill="#356697"/>
</g>
<g id="Group_231">
<path id="rb-3382992_14" d="M154.264 122.167H147.646V117.799C147.646 116.556 148.653 115.549 149.896 115.549H154.264V122.167Z" fill="#356697"/>
</g>
<g id="Group_232">
<path id="rect-3382992_75" d="M160.682 115.549H154.064V122.166H160.682V115.549Z" fill="#356697"/>
</g>
<g id="Group_233">
<path id="rect-3382992_76" d="M167.102 115.549H160.484V122.166H167.102V115.549Z" fill="#356697"/>
</g>
<g id="Group_234">
<path id="rect-3382992_77" d="M173.521 115.549H166.903V122.166H173.521V115.549Z" fill="#356697"/>
</g>
<g id="Group_235">
<path id="rect-3382992_78" d="M179.941 115.549H173.323V122.166H179.941V115.549Z" fill="#356697"/>
</g>
<g id="Group_236">
<path id="rect-3382992_79" d="M186.36 115.549H179.742V122.166H186.36V115.549Z" fill="#356697"/>
</g>
<g id="Group_237">
<path id="empty-3382992_14" d="M6.41895 123.861V126.7C6.41895 127.745 7.26604 128.586 8.31167 128.586H11.1507C12.203 128.586 13.0435 127.739 13.0435 126.693V123.861C13.0368 122.808 12.1898 121.968 11.1441 121.968H8.31167C7.26604 121.968 6.41895 122.815 6.41895 123.861Z" fill="#356697"/>
</g>
<g id="Group_238">
<path id="r-3382992_19" d="M25.876 128.586H21.5082C20.2655 128.586 19.2581 127.578 19.2581 126.336V124.218C19.2581 122.975 20.2655 121.968 21.5082 121.968H25.876V128.586Z" fill="#356697"/>
</g>
<g id="Group_239">
<path id="rect-3382992_80" d="M32.2956 121.968H25.6777V128.586H32.2956V121.968Z" fill="#356697"/>
</g>
<g id="Group_240">
<path id="l-3382992_12" d="M32.0967 128.586V121.968H36.4645C37.7072 121.968 38.7146 122.975 38.7146 124.218V128.586H32.0967Z" fill="#356697"/>
</g>
<g id="Group_241">
<path id="r-3382992_20" d="M51.5537 128.586H47.1859C45.9432 128.586 44.9358 127.578 44.9358 126.336V124.218C44.9358 122.975 45.9432 121.968 47.1859 121.968H51.5537V128.586Z" fill="#356697"/>
</g>
<g id="Group_242">
<path id="rect-3382992_81" d="M57.9724 121.968H51.3545V128.586H57.9724V121.968Z" fill="#356697"/>
</g>
<g id="Group_243">
<path id="rect-3382992_82" d="M64.3923 121.968H57.7744V128.586H64.3923V121.968Z" fill="#356697"/>
</g>
<g id="Group_244">
<path id="t-3382992_21" d="M77.2314 121.968V126.336C77.2314 127.578 76.224 128.586 74.9814 128.586H72.8636C71.6209 128.586 70.6135 127.578 70.6135 126.336V121.968H77.2314Z" fill="#356697"/>
</g>
<g id="Group_245">
<path id="n_rb-3382992_25" d="M81.6318 128.453V128.586H83.6503V126.567H83.5179C83.5179 127.613 82.6708 128.453 81.6318 128.453Z" fill="#356697"/>
</g>
<g id="Group_246">
<path id="rb-3382992_15" d="M90.0703 128.586H83.4524V124.218C83.4524 122.975 84.4598 121.968 85.7025 121.968H90.0703V128.586Z" fill="#356697"/>
</g>
<g id="Group_247">
<path id="rect-3382992_83" d="M96.489 121.968H89.8711V128.586H96.489V121.968Z" fill="#356697"/>
</g>
<g id="Group_248">
<path id="l-3382992_13" d="M96.29 128.586V121.968H100.658C101.901 121.968 102.908 122.975 102.908 124.218V128.586H96.29Z" fill="#356697"/>
</g>
<g id="Group_249">
<path id="rt-3382992_12" d="M115.747 121.968V128.586H111.379C110.137 128.586 109.129 127.578 109.129 126.336V121.968H115.747Z" fill="#356697"/>
</g>
<g id="Group_250">
<path id="l-3382992_14" d="M115.549 128.586V121.968H119.917C121.159 121.968 122.167 122.975 122.167 124.218V128.586H115.549Z" fill="#356697"/>
</g>
<g id="Group_251">
<path id="n_rb-3382992_26" d="M126.567 128.453V128.586H128.586V126.567H128.453C128.453 127.613 127.606 128.453 126.567 128.453Z" fill="#356697"/>
</g>
<g id="Group_252">
<path id="rect-3382992_84" d="M135.006 121.968H128.388V128.586H135.006V121.968Z" fill="#356697"/>
</g>
<g id="Group_253">
<path id="n_rb-3382992_27" d="M139.406 128.453V128.586H141.425V126.567H141.292C141.292 127.613 140.445 128.453 139.406 128.453Z" fill="#356697"/>
</g>
<g id="Group_254">
<path id="rb-3382992_16" d="M147.844 128.586H141.226V124.218C141.226 122.975 142.233 121.968 143.476 121.968H147.844V128.586Z" fill="#356697"/>
</g>
<g id="Group_255">
<path id="rect-3382992_85" d="M154.263 121.968H147.646V128.586H154.263V121.968Z" fill="#356697"/>
</g>
<g id="Group_256">
<path id="rect-3382992_86" d="M160.682 121.968H154.064V128.586H160.682V121.968Z" fill="#356697"/>
</g>
<g id="Group_257">
<path id="rect-3382992_87" d="M179.941 121.968H173.323V128.586H179.941V121.968Z" fill="#356697"/>
</g>
<g id="Group_258">
<path id="lt-3382992_11" d="M179.742 121.968H186.36V126.336C186.36 127.578 185.353 128.586 184.11 128.586H179.742V121.968Z" fill="#356697"/>
</g>
<g id="Group_259">
<path id="empty-3382992_15" d="M0 130.28V133.119C0 134.165 0.847092 135.005 1.89272 135.005H4.7318C5.78405 135.005 6.62452 134.158 6.62452 133.113V130.28C6.6179 129.228 5.77081 128.387 4.72518 128.387H1.89272C0.847092 128.387 0 129.234 0 130.28Z" fill="#356697"/>
</g>
<g id="Group_260">
<path id="empty-3382992_16" d="M12.8389 130.28V133.119C12.8389 134.165 13.686 135.005 14.7316 135.005H17.5707C18.6229 135.005 19.4634 134.158 19.4634 133.113V130.28C19.4568 129.228 18.6097 128.387 17.5641 128.387H14.7316C13.686 128.387 12.8389 129.234 12.8389 130.28Z" fill="#356697"/>
</g>
<g id="Group_261">
<path id="t-3382992_22" d="M32.2959 128.387V132.755C32.2959 133.998 31.2885 135.005 30.0458 135.005H27.9281C26.6854 135.005 25.678 133.998 25.678 132.755V128.387H32.2959Z" fill="#356697"/>
</g>
<g id="Group_262">
<path id="empty-3382992_17" d="M38.5166 130.28V133.119C38.5166 134.165 39.3637 135.005 40.4093 135.005H43.2484C44.3006 135.005 45.1411 134.158 45.1411 133.113V130.28C45.1345 129.228 44.2874 128.387 43.2418 128.387H40.4093C39.3637 128.387 38.5166 129.234 38.5166 130.28Z" fill="#356697"/>
</g>
<g id="Group_263">
<path id="rect-3382992_88" d="M57.9724 128.387H51.3545V135.005H57.9724V128.387Z" fill="#356697"/>
</g>
<g id="Group_264">
<path id="rect-3382992_89" d="M64.3923 128.387H57.7744V135.005H64.3923V128.387Z" fill="#356697"/>
</g>
<g id="Group_265">
<path id="lb-3382992_15" d="M64.1934 135.005V128.387H68.5612C69.8039 128.387 70.8113 129.395 70.8113 130.637V135.005H64.1934Z" fill="#356697"/>
</g>
<g id="Group_266">
<path id="r-3382992_21" d="M83.6504 135.005H79.2826C78.0399 135.005 77.0325 133.998 77.0325 132.755V130.637C77.0325 129.395 78.0399 128.387 79.2826 128.387H83.6504V135.005Z" fill="#356697"/>
</g>
<g id="Group_267">
<path id="lt-3382992_12" d="M83.4521 128.387H90.0701V132.755C90.0701 133.998 89.0627 135.005 87.82 135.005H83.4521V128.387Z" fill="#356697"/>
</g>
<g id="Group_268">
<path id="r-3382992_22" d="M128.586 135.005H124.218C122.975 135.005 121.968 133.998 121.968 132.755V130.637C121.968 129.395 122.975 128.387 124.218 128.387H128.586V135.005Z" fill="#356697"/>
</g>
<g id="Group_269">
<path id="rect-3382992_90" d="M135.006 128.387H128.388V135.005H135.006V128.387Z" fill="#356697"/>
</g>
<g id="Group_270">
<path id="rect-3382992_91" d="M141.425 128.387H134.807V135.005H141.425V128.387Z" fill="#356697"/>
</g>
<g id="Group_271">
<path id="rect-3382992_92" d="M147.843 128.387H141.226V135.005H147.843V128.387Z" fill="#356697"/>
</g>
<g id="Group_272">
<path id="rect-3382992_93" d="M154.263 128.387H147.646V135.005H154.263V128.387Z" fill="#356697"/>
</g>
<g id="Group_273">
<path id="rect-3382992_94" d="M160.682 128.387H154.064V135.005H160.682V128.387Z" fill="#356697"/>
</g>
<g id="Group_274">
<path id="rect-3382992_95" d="M179.941 128.387H173.323V135.005H179.941V128.387Z" fill="#356697"/>
</g>
<g id="Group_275">
<path id="rect-3382992_96" d="M57.9724 134.807H51.3545V141.425H57.9724V134.807Z" fill="#356697"/>
</g>
<g id="Group_276">
<path id="rt-3382992_13" d="M70.8115 134.807V141.425H66.4437C65.201 141.425 64.1936 140.417 64.1936 139.175V134.807H70.8115Z" fill="#356697"/>
</g>
<g id="Group_277">
<path id="l-3382992_15" d="M70.6133 141.425V134.807H74.9811C76.2238 134.807 77.2312 135.814 77.2312 137.057V141.425H70.6133Z" fill="#356697"/>
</g>
<g id="Group_278">
<path id="b-3382992_22" d="M89.8711 141.425V137.057C89.8711 135.814 90.8785 134.807 92.1212 134.807H94.2389C95.4816 134.807 96.489 135.814 96.489 137.057V141.425H89.8711Z" fill="#356697"/>
</g>
<g id="Group_279">
<path id="empty-3382992_18" d="M102.71 136.699V139.539C102.71 140.584 103.557 141.425 104.603 141.425H107.442C108.494 141.425 109.334 140.578 109.334 139.532V136.699C109.328 135.647 108.481 134.807 107.435 134.807H104.603C103.557 134.807 102.71 135.654 102.71 136.699Z" fill="#356697"/>
</g>
<g id="Group_280">
<path id="rect-3382992_97" d="M135.006 134.807H128.388V141.425H135.006V134.807Z" fill="#356697"/>
</g>
<g id="Group_281">
<path id="rect-3382992_98" d="M160.682 134.807H154.064V141.425H160.682V134.807Z" fill="#356697"/>
</g>
<g id="Group_282">
<path id="n_rb-3382992_28" d="M171.503 141.292V141.425H173.521V139.406H173.389C173.389 140.452 172.542 141.292 171.503 141.292Z" fill="#356697"/>
</g>
<g id="Group_283">
<path id="rect-3382992_99" d="M179.941 134.807H173.323V141.425H179.941V134.807Z" fill="#356697"/>
</g>
<g id="Group_284">
<path id="lb-3382992_16" d="M179.742 141.425V134.807H184.11C185.353 134.807 186.36 135.814 186.36 137.057V141.425H179.742Z" fill="#356697"/>
</g>
<g id="Group_285">
<path id="rt-3382992_14" d="M57.9727 141.226V147.844H53.6048C52.3622 147.844 51.3548 146.837 51.3548 145.594V141.226H57.9727Z" fill="#356697"/>
</g>
<g id="Group_286">
<path id="l-3382992_16" d="M57.7744 147.844V141.226H62.1422C63.3849 141.226 64.3923 142.233 64.3923 143.476V147.844H57.7744Z" fill="#356697"/>
</g>
<g id="Group_287">
<path id="rect-3382992_100" d="M96.489 141.226H89.8711V147.844H96.489V141.226Z" fill="#356697"/>
</g>
<g id="Group_288">
<path id="n_rb-3382992_29" d="M113.729 147.712V147.844H115.747V145.826H115.615C115.615 146.871 114.768 147.712 113.729 147.712Z" fill="#356697"/>
</g>
<g id="Group_289">
<path id="rb-3382992_17" d="M122.167 147.844H115.549V143.476C115.549 142.233 116.556 141.226 117.799 141.226H122.167V147.844Z" fill="#356697"/>
</g>
<g id="Group_290">
<path id="rect-3382992_101" d="M128.586 141.226H121.968V147.844H128.586V141.226Z" fill="#356697"/>
</g>
<g id="Group_291">
<path id="rect-3382992_102" d="M135.006 141.226H128.388V147.844H135.006V141.226Z" fill="#356697"/>
</g>
<g id="Group_292">
<path id="empty-3382992_19" d="M141.226 143.119V145.958C141.226 147.004 142.073 147.844 143.118 147.844H145.957C147.01 147.844 147.85 146.997 147.85 145.951V143.119C147.843 142.067 146.996 141.226 145.951 141.226H143.118C142.073 141.226 141.226 142.073 141.226 143.119Z" fill="#356697"/>
</g>
<g id="Group_293">
<path id="rect-3382992_103" d="M160.682 141.226H154.064V147.844H160.682V141.226Z" fill="#356697"/>
</g>
<g id="Group_294">
<path id="r-3382992_23" d="M173.521 147.844H169.154C167.911 147.844 166.904 146.837 166.904 145.594V143.476C166.904 142.233 167.911 141.226 169.154 141.226H173.521V147.844Z" fill="#356697"/>
</g>
<g id="Group_295">
<path id="rect-3382992_104" d="M179.941 141.226H173.323V147.844H179.941V141.226Z" fill="#356697"/>
</g>
<g id="Group_296">
<path id="rect-3382992_105" d="M186.36 141.226H179.742V147.844H186.36V141.226Z" fill="#356697"/>
</g>
<g id="Group_297">
<path id="empty-3382992_20" d="M64.1934 149.538V152.377C64.1934 153.423 65.0405 154.263 66.0861 154.263H68.9252C69.9774 154.263 70.8179 153.416 70.8179 152.371V149.538C70.8113 148.486 69.9642 147.645 68.9185 147.645H66.0861C65.0405 147.645 64.1934 148.492 64.1934 149.538Z" fill="#356697"/>
</g>
<g id="Group_298">
<path id="n_rb-3382992_30" d="M75.2129 154.131V154.263H77.2314V152.245H77.099C77.099 153.291 76.2519 154.131 75.2129 154.131Z" fill="#356697"/>
</g>
<g id="Group_299">
<path id="b-3382992_23" d="M77.0322 154.263V149.895C77.0322 148.653 78.0396 147.645 79.2823 147.645H81.4C82.6427 147.645 83.6501 148.653 83.6501 149.895V154.263H77.0322Z" fill="#356697"/>
</g>
<g id="Group_300">
<path id="rect-3382992_106" d="M96.489 147.645H89.8711V154.263H96.489V147.645Z" fill="#356697"/>
</g>
<g id="Group_301">
<path id="n_rb-3382992_31" d="M100.89 154.131V154.263H102.908V152.245H102.776C102.776 153.291 101.929 154.131 100.89 154.131Z" fill="#356697"/>
</g>
<g id="Group_302">
<path id="rb-3382992_18" d="M109.328 154.263H102.71V149.895C102.71 148.653 103.718 147.645 104.96 147.645H109.328V154.263Z" fill="#356697"/>
</g>
<g id="Group_303">
<path id="rect-3382992_107" d="M115.747 147.645H109.129V154.263H115.747V147.645Z" fill="#356697"/>
</g>
<g id="Group_304">
<path id="rect-3382992_108" d="M122.167 147.645H115.549V154.263H122.167V147.645Z" fill="#356697"/>
</g>
<g id="Group_305">
<path id="rect-3382992_109" d="M135.006 147.645H128.388V154.263H135.006V147.645Z" fill="#356697"/>
</g>
<g id="Group_306">
<path id="n_rb-3382992_32" d="M152.245 154.131V154.263H154.264V152.245H154.131C154.131 153.291 153.284 154.131 152.245 154.131Z" fill="#356697"/>
</g>
<g id="Group_307">
<path id="rect-3382992_110" d="M160.682 147.645H154.064V154.263H160.682V147.645Z" fill="#356697"/>
</g>
<g id="Group_308">
<path id="rt-3382992_15" d="M179.941 147.645V154.263H175.574C174.331 154.263 173.324 153.256 173.324 152.013V147.645H179.941Z" fill="#356697"/>
</g>
<g id="Group_309">
<path id="rect-3382992_111" d="M186.36 147.645H179.742V154.263H186.36V147.645Z" fill="#356697"/>
</g>
<g id="Group_310">
<path id="r-3382992_24" d="M57.9727 160.683H53.6048C52.3622 160.683 51.3548 159.675 51.3548 158.433V156.315C51.3548 155.072 52.3622 154.065 53.6048 154.065H57.9727V160.683Z" fill="#356697"/>
</g>
<g id="Group_311">
<path id="lb-3382992_17" d="M57.7744 160.683V154.065H62.1422C63.3849 154.065 64.3923 155.072 64.3923 156.315V160.683H57.7744Z" fill="#356697"/>
</g>
<g id="Group_312">
<path id="rb-3382992_19" d="M77.2314 160.683H70.6135V156.315C70.6135 155.072 71.6209 154.065 72.8636 154.065H77.2314V160.683Z" fill="#356697"/>
</g>
<g id="Group_313">
<path id="lt-3382992_13" d="M77.0322 154.065H83.6501V158.433C83.6501 159.675 82.6427 160.683 81.4 160.683H77.0322V154.065Z" fill="#356697"/>
</g>
<g id="Group_314">
<path id="n_rb-3382992_33" d="M88.0508 160.55V160.683H90.0692V158.664H89.9369C89.9369 159.71 89.0898 160.55 88.0508 160.55Z" fill="#356697"/>
</g>
<g id="Group_315">
<path id="rect-3382992_112" d="M96.489 154.065H89.8711V160.683H96.489V154.065Z" fill="#356697"/>
</g>
<g id="Group_316">
<path id="rect-3382992_113" d="M102.908 154.065H96.29V160.683H102.908V154.065Z" fill="#356697"/>
</g>
<g id="Group_317">
<path id="rect-3382992_114" d="M109.328 154.065H102.71V160.683H109.328V154.065Z" fill="#356697"/>
</g>
<g id="Group_318">
<path id="t-3382992_23" d="M122.167 154.065V158.433C122.167 159.675 121.16 160.683 119.917 160.683H117.799C116.556 160.683 115.549 159.675 115.549 158.433V154.065H122.167Z" fill="#356697"/>
</g>
<g id="Group_319">
<path id="rect-3382992_115" d="M135.006 154.065H128.388V160.683H135.006V154.065Z" fill="#356697"/>
</g>
<g id="Group_320">
<path id="rect-3382992_116" d="M141.425 154.065H134.807V160.683H141.425V154.065Z" fill="#356697"/>
</g>
<g id="Group_321">
<path id="rect-3382992_117" d="M147.843 154.065H141.226V160.683H147.843V154.065Z" fill="#356697"/>
</g>
<g id="Group_322">
<path id="rect-3382992_118" d="M154.263 154.065H147.646V160.683H154.263V154.065Z" fill="#356697"/>
</g>
<g id="Group_323">
<path id="rect-3382992_119" d="M160.682 154.065H154.064V160.683H160.682V154.065Z" fill="#356697"/>
</g>
<g id="Group_324">
<path id="l-3382992_17" d="M160.484 160.683V154.065H164.852C166.095 154.065 167.102 155.072 167.102 156.315V160.683H160.484Z" fill="#356697"/>
</g>
<g id="Group_325">
<path id="t-3382992_24" d="M186.36 154.065V158.433C186.36 159.675 185.353 160.683 184.11 160.683H181.993C180.75 160.683 179.742 159.675 179.742 158.433V154.065H186.36Z" fill="#356697"/>
</g>
<g id="Group_326">
<path id="t-3382992_25" d="M64.3926 160.484V164.852C64.3926 166.095 63.3852 167.102 62.1425 167.102H60.0248C58.7821 167.102 57.7747 166.095 57.7747 164.852V160.484H64.3926Z" fill="#356697"/>
</g>
<g id="Group_327">
<path id="t-3382992_26" d="M77.2314 160.484V164.852C77.2314 166.095 76.224 167.102 74.9814 167.102H72.8636C71.6209 167.102 70.6135 166.095 70.6135 164.852V160.484H77.2314Z" fill="#356697"/>
</g>
<g id="Group_328">
<path id="rb-3382992_20" d="M90.0703 167.102H83.4524V162.734C83.4524 161.492 84.4598 160.484 85.7025 160.484H90.0703V167.102Z" fill="#356697"/>
</g>
<g id="Group_329">
<path id="rect-3382992_120" d="M96.489 160.484H89.8711V167.102H96.489V160.484Z" fill="#356697"/>
</g>
<g id="Group_330">
<path id="rect-3382992_121" d="M102.908 160.484H96.29V167.102H102.908V160.484Z" fill="#356697"/>
</g>
<g id="Group_331">
<path id="rect-3382992_122" d="M109.328 160.484H102.71V167.102H109.328V160.484Z" fill="#356697"/>
</g>
<g id="Group_332">
<path id="lb-3382992_18" d="M109.129 167.102V160.484H113.497C114.739 160.484 115.747 161.492 115.747 162.734V167.102H109.129Z" fill="#356697"/>
</g>
<g id="Group_333">
<path id="rt-3382992_16" d="M135.006 160.484V167.102H130.638C129.395 167.102 128.388 166.095 128.388 164.852V160.484H135.006Z" fill="#356697"/>
</g>
<g id="Group_334">
<path id="lt-3382992_14" d="M134.807 160.484H141.425V164.852C141.425 166.095 140.417 167.102 139.174 167.102H134.807V160.484Z" fill="#356697"/>
</g>
<g id="Group_335">
<path id="rect-3382992_123" d="M160.682 160.484H154.064V167.102H160.682V160.484Z" fill="#356697"/>
</g>
<g id="Group_336">
<path id="b-3382992_24" d="M166.903 167.102V162.734C166.903 161.492 167.911 160.484 169.153 160.484H171.271C172.514 160.484 173.521 161.492 173.521 162.734V167.102H166.903Z" fill="#356697"/>
</g>
<g id="Group_337">
<path id="b-3382992_25" d="M51.3545 173.521V169.154C51.3545 167.911 52.3619 166.904 53.6046 166.904H55.7223C56.965 166.904 57.9724 167.911 57.9724 169.154V173.521H51.3545Z" fill="#356697"/>
</g>
<g id="Group_338">
<path id="empty-3382992_21" d="M64.1934 168.796V171.635C64.1934 172.681 65.0405 173.521 66.0861 173.521H68.9252C69.9774 173.521 70.8179 172.674 70.8179 171.629V168.796C70.8113 167.744 69.9642 166.904 68.9185 166.904H66.0861C65.0405 166.904 64.1934 167.751 64.1934 168.796Z" fill="#356697"/>
</g>
<g id="Group_339">
<path id="rt-3382992_17" d="M90.0703 166.904V173.521H85.7025C84.4598 173.521 83.4524 172.514 83.4524 171.271V166.904H90.0703Z" fill="#356697"/>
</g>
<g id="Group_340">
<path id="rect-3382992_124" d="M96.489 166.904H89.8711V173.521H96.489V166.904Z" fill="#356697"/>
</g>
<g id="Group_341">
<path id="rect-3382992_125" d="M102.908 166.904H96.29V173.521H102.908V166.904Z" fill="#356697"/>
</g>
<g id="Group_342">
<path id="rect-3382992_126" d="M109.328 166.904H102.71V173.521H109.328V166.904Z" fill="#356697"/>
</g>
<g id="Group_343">
<path id="rect-3382992_127" d="M115.747 166.904H109.129V173.521H115.747V166.904Z" fill="#356697"/>
</g>
<g id="Group_344">
<path id="rect-3382992_128" d="M122.167 166.904H115.549V173.521H122.167V166.904Z" fill="#356697"/>
</g>
<g id="Group_345">
<path id="lb-3382992_19" d="M121.968 173.521V166.904H126.336C127.578 166.904 128.586 167.911 128.586 169.154V173.521H121.968Z" fill="#356697"/>
</g>
<g id="Group_346">
<path id="n_rb-3382992_34" d="M145.825 173.389V173.521H147.844V171.503H147.711C147.711 172.549 146.864 173.389 145.825 173.389Z" fill="#356697"/>
</g>
<g id="Group_347">
<path id="rb-3382992_21" d="M154.264 173.521H147.646V169.154C147.646 167.911 148.653 166.904 149.896 166.904H154.264V173.521Z" fill="#356697"/>
</g>
<g id="Group_348">
<path id="lt-3382992_15" d="M154.064 166.904H160.682V171.271C160.682 172.514 159.675 173.521 158.432 173.521H154.064V166.904Z" fill="#356697"/>
</g>
<g id="Group_349">
<path id="t-3382992_27" d="M173.521 166.904V171.271C173.521 172.514 172.514 173.521 171.271 173.521H169.154C167.911 173.521 166.904 172.514 166.904 171.271V166.904H173.521Z" fill="#356697"/>
</g>
<g id="Group_350">
<path id="empty-3382992_22" d="M179.742 168.796V171.635C179.742 172.681 180.589 173.521 181.635 173.521H184.474C185.526 173.521 186.367 172.674 186.367 171.629V168.796C186.36 167.744 185.513 166.904 184.467 166.904H181.635C180.589 166.904 179.742 167.751 179.742 168.796Z" fill="#356697"/>
</g>
<g id="Group_351">
<path id="rt-3382992_18" d="M57.9727 173.323V179.941H53.6048C52.3622 179.941 51.3548 178.933 51.3548 177.691V173.323H57.9727Z" fill="#356697"/>
</g>
<g id="Group_352">
<path id="lb-3382992_20" d="M57.7744 179.941V173.323H62.1422C63.3849 173.323 64.3923 174.33 64.3923 175.573V179.941H57.7744Z" fill="#356697"/>
</g>
<g id="Group_353">
<path id="r-3382992_25" d="M77.2314 179.941H72.8636C71.6209 179.941 70.6135 178.933 70.6135 177.691V175.573C70.6135 174.33 71.6209 173.323 72.8636 173.323H77.2314V179.941Z" fill="#356697"/>
</g>
<g id="Group_354">
<path id="lb-3382992_21" d="M77.0322 179.941V173.323H81.4C82.6427 173.323 83.6501 174.33 83.6501 175.573V179.941H77.0322Z" fill="#356697"/>
</g>
<g id="Group_355">
<path id="rect-3382992_129" d="M96.489 173.323H89.8711V179.941H96.489V173.323Z" fill="#356697"/>
</g>
<g id="Group_356">
<path id="rect-3382992_130" d="M109.328 173.323H102.71V179.941H109.328V173.323Z" fill="#356697"/>
</g>
<g id="Group_357">
<path id="rect-3382992_131" d="M115.747 173.323H109.129V179.941H115.747V173.323Z" fill="#356697"/>
</g>
<g id="Group_358">
<path id="rect-3382992_132" d="M128.586 173.323H121.968V179.941H128.586V173.323Z" fill="#356697"/>
</g>
<g id="Group_359">
<path id="r-3382992_26" d="M147.844 179.941H143.476C142.233 179.941 141.226 178.933 141.226 177.691V175.573C141.226 174.33 142.233 173.323 143.476 173.323H147.844V179.941Z" fill="#356697"/>
</g>
<g id="Group_360">
<path id="lt-3382992_16" d="M147.646 173.323H154.263V177.691C154.263 178.933 153.256 179.941 152.013 179.941H147.646V173.323Z" fill="#356697"/>
</g>
<g id="Group_361">
<path id="b-3382992_26" d="M173.323 179.941V175.573C173.323 174.33 174.331 173.323 175.573 173.323H177.691C178.934 173.323 179.941 174.33 179.941 175.573V179.941H173.323Z" fill="#356697"/>
</g>
<g id="Group_362">
<path id="rt-3382992_19" d="M64.3926 179.742V186.36H60.0248C58.7821 186.36 57.7747 185.353 57.7747 184.11V179.742H64.3926Z" fill="#356697"/>
</g>
<g id="Group_363">
<path id="l-3382992_18" d="M64.1934 186.36V179.742H68.5612C69.8039 179.742 70.8113 180.75 70.8113 181.992V186.36H64.1934Z" fill="#356697"/>
</g>
<g id="Group_364">
<path id="t-3382992_28" d="M83.6504 179.742V184.11C83.6504 185.353 82.643 186.36 81.4003 186.36H79.2826C78.0399 186.36 77.0325 185.353 77.0325 184.11V179.742H83.6504Z" fill="#356697"/>
</g>
<g id="Group_365">
<path id="rt-3382992_20" d="M96.4893 179.742V186.36H92.1214C90.8788 186.36 89.8714 185.353 89.8714 184.11V179.742H96.4893Z" fill="#356697"/>
</g>
<g id="Group_366">
<path id="rect-3382992_133" d="M102.908 179.742H96.29V186.36H102.908V179.742Z" fill="#356697"/>
</g>
<g id="Group_367">
<path id="rect-3382992_134" d="M109.328 179.742H102.71V186.36H109.328V179.742Z" fill="#356697"/>
</g>
<g id="Group_368">
<path id="lt-3382992_17" d="M109.129 179.742H115.747V184.11C115.747 185.353 114.739 186.36 113.497 186.36H109.129V179.742Z" fill="#356697"/>
</g>
<g id="Group_369">
<path id="rt-3382992_21" d="M128.586 179.742V186.36H124.218C122.975 186.36 121.968 185.353 121.968 184.11V179.742H128.586Z" fill="#356697"/>
</g>
<g id="Group_370">
<path id="rect-3382992_135" d="M135.006 179.742H128.388V186.36H135.006V179.742Z" fill="#356697"/>
</g>
<g id="Group_371">
<path id="l-3382992_19" d="M134.807 186.36V179.742H139.174C140.417 179.742 141.425 180.75 141.425 181.992V186.36H134.807Z" fill="#356697"/>
</g>
<g id="Group_372">
<path id="empty-3382992_23" d="M154.064 181.635V184.474C154.064 185.52 154.912 186.36 155.957 186.36H158.796C159.849 186.36 160.689 185.513 160.689 184.467V181.635C160.682 180.583 159.835 179.742 158.79 179.742H155.957C154.912 179.742 154.064 180.589 154.064 181.635Z" fill="#356697"/>
</g>
<g id="Group_373">
<path id="rt-3382992_22" d="M179.941 179.742V186.36H175.574C174.331 186.36 173.324 185.353 173.324 184.11V179.742H179.941Z" fill="#356697"/>
</g>
<g id="Group_374">
<path id="l-3382992_20" d="M179.742 186.36V179.742H184.11C185.353 179.742 186.36 180.75 186.36 181.992V186.36H179.742Z" fill="#356697"/>
</g>
<path id="point-3382992" fill-rule="evenodd" clip-rule="evenodd" d="M39.7075 30.2656V16.0589C39.7075 9.75296 38.8497 8.21433 38.4808 7.84456C38.111 7.47562 36.5724 6.61778 30.2656 6.61778H16.0597C9.75296 6.61778 8.21432 7.47562 7.84538 7.84456C7.47644 8.21433 6.61778 9.75296 6.61778 16.0589V30.2656C6.61778 36.5724 7.47644 38.111 7.84538 38.4808C8.21432 38.8489 9.75296 39.7075 16.0597 39.7075H30.2656C36.5724 39.7075 38.111 38.8489 38.4808 38.4808C38.8497 38.111 39.7075 36.5724 39.7075 30.2656ZM30.2656 0C43.2373 0 46.3253 3.08802 46.3253 16.0589C46.3253 29.0306 46.3253 17.2948 46.3253 30.2656C46.3253 43.2373 43.2373 46.3253 30.2656 46.3253C17.2948 46.3253 29.0306 46.3253 16.0597 46.3253C3.08802 46.3253 0 43.2373 0 30.2656C0 17.2948 0 23.3029 0 16.0589C0 3.08802 3.08802 0 16.0597 0C29.0306 0 17.2948 0 30.2656 0ZM26.2067 13.2358C31.7662 13.2358 33.0895 14.5599 33.0895 20.1178C33.0895 25.6774 33.0895 20.648 33.0895 26.2067C33.0895 31.7654 31.7662 33.0895 26.2067 33.0895C20.648 33.0895 25.6774 33.0895 20.1186 33.0895C14.5599 33.0895 13.2358 31.7654 13.2358 26.2067C13.2358 20.648 13.2358 23.2226 13.2358 20.1178C13.2358 14.5599 14.5599 13.2358 20.1186 13.2358C25.6774 13.2358 20.648 13.2358 26.2067 13.2358Z" fill="#356697"/>
<path id="point-3382992_2" fill-rule="evenodd" clip-rule="evenodd" d="M179.478 30.2656V16.0589C179.478 9.75296 178.62 8.21433 178.251 7.84456C177.882 7.47562 176.343 6.61778 170.036 6.61778H155.83C149.523 6.61778 147.985 7.47562 147.616 7.84456C147.247 8.21433 146.388 9.75296 146.388 16.0589V30.2656C146.388 36.5724 147.247 38.111 147.616 38.4808C147.985 38.8489 149.523 39.7075 155.83 39.7075H170.036C176.343 39.7075 177.882 38.8489 178.251 38.4808C178.62 38.111 179.478 36.5724 179.478 30.2656ZM170.036 0C183.008 0 186.096 3.08802 186.096 16.0589C186.096 29.0306 186.096 17.2948 186.096 30.2656C186.096 43.2373 183.008 46.3253 170.036 46.3253C157.065 46.3253 168.801 46.3253 155.83 46.3253C142.859 46.3253 139.771 43.2373 139.771 30.2656C139.771 17.2948 139.771 23.3029 139.771 16.0589C139.771 3.08802 142.859 0 155.83 0C168.801 0 157.065 0 170.036 0ZM165.977 13.2358C171.537 13.2358 172.86 14.5599 172.86 20.1178C172.86 25.6774 172.86 20.648 172.86 26.2067C172.86 31.7654 171.537 33.0895 165.977 33.0895C160.418 33.0895 165.448 33.0895 159.889 33.0895C154.33 33.0895 153.006 31.7654 153.006 26.2067C153.006 20.648 153.006 23.2226 153.006 20.1178C153.006 14.5599 154.33 13.2358 159.889 13.2358C165.448 13.2358 160.418 13.2358 165.977 13.2358Z" fill="#356697"/>
<path id="point-3382992_3" fill-rule="evenodd" clip-rule="evenodd" d="M39.7075 170.036V155.829C39.7075 149.523 38.8497 147.984 38.4808 147.615C38.111 147.246 36.5724 146.388 30.2656 146.388H16.0597C9.75296 146.388 8.21432 147.246 7.84538 147.615C7.47644 147.984 6.61778 149.523 6.61778 155.829V170.036C6.61778 176.343 7.47644 177.881 7.84538 178.251C8.21432 178.619 9.75296 179.478 16.0597 179.478H30.2656C36.5724 179.478 38.111 178.619 38.4808 178.251C38.8497 177.881 39.7075 176.343 39.7075 170.036ZM30.2656 139.77C43.2373 139.77 46.3253 142.858 46.3253 155.829C46.3253 168.801 46.3253 157.065 46.3253 170.036C46.3253 183.007 43.2373 186.095 30.2656 186.095C17.2948 186.095 29.0306 186.095 16.0597 186.095C3.08802 186.095 0 183.007 0 170.036C0 157.065 0 163.073 0 155.829C0 142.858 3.08802 139.77 16.0597 139.77C29.0306 139.77 17.2948 139.77 30.2656 139.77ZM26.2067 153.006C31.7662 153.006 33.0895 154.33 33.0895 159.888C33.0895 165.447 33.0895 160.418 33.0895 165.977C33.0895 171.536 31.7662 172.86 26.2067 172.86C20.648 172.86 25.6774 172.86 20.1186 172.86C14.5599 172.86 13.2358 171.536 13.2358 165.977C13.2358 160.418 13.2358 162.993 13.2358 159.888C13.2358 154.33 14.5599 153.006 20.1186 153.006C25.6774 153.006 20.648 153.006 26.2067 153.006Z" fill="#356697"/>
</g>
</svg>
