<svg width="187" height="187" viewBox="0 0 187 187" fill="none" xmlns="http://www.w3.org/2000/svg">
<g id="Group">
<g id="Group_2">
<path id="empty-8141487" d="M51.9678 1.89272V4.7318C51.9678 5.77743 52.8149 6.6179 53.8605 6.6179H56.6996C57.7518 6.6179 58.5923 5.77081 58.5923 4.72518V1.89272C58.5857 0.840474 57.7386 0 56.693 0H53.8605C52.8149 0 51.9678 0.847092 51.9678 1.89272Z" fill="#356697"/>
</g>
<g id="Group_3">
<path id="b-8141487" d="M71.2266 6.61792V2.2501C71.2266 1.00742 72.234 1.71661e-05 73.4766 1.71661e-05H75.5944C76.8371 1.71661e-05 77.8445 1.00742 77.8445 2.2501V6.61792H71.2266Z" fill="#356697"/>
</g>
<g id="Group_4">
<path id="rb-8141487" d="M90.6836 6.61792L84.0657 6.61792V2.2501C84.0657 1.00742 85.0731 1.71661e-05 86.3158 1.71661e-05L90.6836 1.71661e-05V6.61792Z" fill="#356697"/>
</g>
<g id="Group_5">
<path id="l-8141487" d="M90.4844 6.61792V1.71661e-05H94.8522C96.0949 1.71661e-05 97.1023 1.00742 97.1023 2.2501V6.61792H90.4844Z" fill="#356697"/>
</g>
<g id="Group_6">
<path id="r-8141487" d="M109.941 6.61792L105.574 6.61792C104.331 6.61792 103.324 5.61052 103.324 4.36783V2.2501C103.324 1.00742 104.331 1.71661e-05 105.574 1.71661e-05L109.941 1.71661e-05V6.61792Z" fill="#356697"/>
</g>
<g id="Group_7">
<path id="l-8141487_2" d="M109.742 6.61792V1.71661e-05H114.11C115.353 1.71661e-05 116.36 1.00742 116.36 2.2501V6.61792H109.742Z" fill="#356697"/>
</g>
<g id="Group_8">
<path id="b-8141487_2" d="M129.001 6.61792V2.2501C129.001 1.00742 130.008 1.71661e-05 131.251 1.71661e-05H133.369C134.611 1.71661e-05 135.619 1.00742 135.619 2.2501V6.61792H129.001Z" fill="#356697"/>
</g>
<g id="Group_9">
<path id="rect-8141487" d="M77.8445 6.41937H71.2266V13.0373H77.8445V6.41937Z" fill="#356697"/>
</g>
<g id="Group_10">
<path id="rect-8141487_2" d="M90.6833 6.41937H84.0654V13.0373H90.6833V6.41937Z" fill="#356697"/>
</g>
<g id="Group_11">
<path id="n_rb-8141487" d="M95.084 12.9049V13.0373H97.1024V11.0188H96.9701C96.9701 12.0644 96.123 12.9049 95.084 12.9049Z" fill="#356697"/>
</g>
<g id="Group_12">
<path id="b-8141487_3" d="M96.9033 13.0373V8.66948C96.9033 7.42679 97.9107 6.41939 99.1534 6.41939H101.271C102.514 6.41939 103.521 7.42679 103.521 8.66948V13.0373H96.9033Z" fill="#356697"/>
</g>
<g id="Group_13">
<path id="n_rb-8141487_2" d="M114.342 12.9049V13.0373H116.36V11.0188H116.228C116.228 12.0644 115.381 12.9049 114.342 12.9049Z" fill="#356697"/>
</g>
<g id="Group_14">
<path id="b-8141487_4" d="M116.162 13.0373V8.66948C116.162 7.42679 117.17 6.41939 118.412 6.41939H120.53C121.773 6.41939 122.78 7.42679 122.78 8.66948V13.0373H116.162Z" fill="#356697"/>
</g>
<g id="Group_15">
<path id="t-8141487" d="M135.619 6.41937V10.7872C135.619 12.0299 134.612 13.0373 133.369 13.0373H131.251C130.009 13.0373 129.001 12.0299 129.001 10.7872V6.41937H135.619Z" fill="#356697"/>
</g>
<g id="Group_16">
<path id="b-8141487_5" d="M51.9678 19.4567V15.0888C51.9678 13.8462 52.9752 12.8388 54.2179 12.8388H56.3356C57.5783 12.8388 58.5857 13.8462 58.5857 15.0888V19.4567H51.9678Z" fill="#356697"/>
</g>
<g id="Group_17">
<path id="t-8141487_2" d="M77.8447 12.8387V17.2066C77.8447 18.4492 76.8373 19.4566 75.5946 19.4566H73.4769C72.2342 19.4566 71.2268 18.4492 71.2268 17.2066V12.8387H77.8447Z" fill="#356697"/>
</g>
<g id="Group_18">
<path id="rect-8141487_3" d="M90.6833 12.8387H84.0654V19.4566H90.6833V12.8387Z" fill="#356697"/>
</g>
<g id="Group_19">
<path id="rect-8141487_4" d="M97.1023 12.8387H90.4844V19.4566H97.1023V12.8387Z" fill="#356697"/>
</g>
<g id="Group_20">
<path id="rect-8141487_5" d="M103.521 12.8387H96.9033V19.4566H103.521V12.8387Z" fill="#356697"/>
</g>
<g id="Group_21">
<path id="rect-8141487_6" d="M109.941 12.8387H103.323V19.4566H109.941V12.8387Z" fill="#356697"/>
</g>
<g id="Group_22">
<path id="rect-8141487_7" d="M116.36 12.8387H109.742V19.4566H116.36V12.8387Z" fill="#356697"/>
</g>
<g id="Group_23">
<path id="rect-8141487_8" d="M122.78 12.8387H116.162V19.4566H122.78V12.8387Z" fill="#356697"/>
</g>
<g id="Group_24">
<path id="t-8141487_3" d="M58.5859 19.2581V23.6259C58.5859 24.8686 57.5785 25.876 56.3359 25.876H54.2181C52.9754 25.876 51.968 24.8686 51.968 23.6259V19.2581H58.5859Z" fill="#356697"/>
</g>
<g id="Group_25">
<path id="rect-8141487_9" d="M90.6833 19.2581H84.0654V25.876H90.6833V19.2581Z" fill="#356697"/>
</g>
<g id="Group_26">
<path id="rect-8141487_10" d="M103.521 19.2581H96.9033V25.876H103.521V19.2581Z" fill="#356697"/>
</g>
<g id="Group_27">
<path id="rect-8141487_11" d="M122.78 19.2581H116.162V25.876H122.78V19.2581Z" fill="#356697"/>
</g>
<g id="Group_28">
<path id="l-8141487_3" d="M122.581 25.876V19.2581H126.949C128.192 19.2581 129.199 20.2655 129.199 21.5082V25.876H122.581Z" fill="#356697"/>
</g>
<g id="Group_29">
<path id="n_rb-8141487_3" d="M56.5674 32.163V32.2954H58.5858V30.2769H58.4535C58.4535 31.3225 57.6064 32.163 56.5674 32.163Z" fill="#356697"/>
</g>
<g id="Group_30">
<path id="b-8141487_6" d="M58.3877 32.2954V27.9276C58.3877 26.6849 59.3951 25.6775 60.6378 25.6775H62.7555C63.9982 25.6775 65.0056 26.6849 65.0056 27.9276V32.2954H58.3877Z" fill="#356697"/>
</g>
<g id="Group_31">
<path id="rt-8141487" d="M90.6836 25.6775V32.2954H86.3158C85.0731 32.2954 84.0657 31.288 84.0657 30.0453V25.6775H90.6836Z" fill="#356697"/>
</g>
<g id="Group_32">
<path id="rect-8141487_12" d="M97.1023 25.6775H90.4844V32.2954H97.1023V25.6775Z" fill="#356697"/>
</g>
<g id="Group_33">
<path id="rect-8141487_13" d="M103.521 25.6775H96.9033V32.2954H103.521V25.6775Z" fill="#356697"/>
</g>
<g id="Group_34">
<path id="rect-8141487_14" d="M109.941 25.6775H103.323V32.2954H109.941V25.6775Z" fill="#356697"/>
</g>
<g id="Group_35">
<path id="rect-8141487_15" d="M116.36 25.6775H109.742V32.2954H116.36V25.6775Z" fill="#356697"/>
</g>
<g id="Group_36">
<path id="rect-8141487_16" d="M122.78 25.6775H116.162V32.2954H122.78V25.6775Z" fill="#356697"/>
</g>
<g id="Group_37">
<path id="empty-8141487_2" d="M129.001 27.5702V30.4093C129.001 31.4549 129.848 32.2954 130.894 32.2954H133.733C134.785 32.2954 135.625 31.4483 135.625 30.4027V27.5702C135.619 26.518 134.772 25.6775 133.726 25.6775H130.894C129.848 25.6775 129.001 26.5246 129.001 27.5702Z" fill="#356697"/>
</g>
<g id="Group_38">
<path id="rb-8141487_2" d="M58.5859 38.7147H51.968V34.3469C51.968 33.1042 52.9754 32.0968 54.2181 32.0968H58.5859V38.7147Z" fill="#356697"/>
</g>
<g id="Group_39">
<path id="rect-8141487_17" d="M65.0056 32.0968H58.3877V38.7147H65.0056V32.0968Z" fill="#356697"/>
</g>
<g id="Group_40">
<path id="rect-8141487_18" d="M71.4245 32.0968H64.8066V38.7147H71.4245V32.0968Z" fill="#356697"/>
</g>
<g id="Group_41">
<path id="l-8141487_4" d="M71.2266 38.7147V32.0968H75.5944C76.8371 32.0968 77.8445 33.1042 77.8445 34.3469V38.7147H71.2266Z" fill="#356697"/>
</g>
<g id="Group_42">
<path id="rect-8141487_19" d="M97.1023 32.0968H90.4844V38.7147H97.1023V32.0968Z" fill="#356697"/>
</g>
<g id="Group_43">
<path id="rect-8141487_20" d="M109.941 32.0968H103.323V38.7147H109.941V32.0968Z" fill="#356697"/>
</g>
<g id="Group_44">
<path id="rect-8141487_21" d="M116.36 32.0968H109.742V38.7147H116.36V32.0968Z" fill="#356697"/>
</g>
<g id="Group_45">
<path id="rect-8141487_22" d="M122.78 32.0968H116.162V38.7147H122.78V32.0968Z" fill="#356697"/>
</g>
<g id="Group_46">
<path id="l-8141487_5" d="M122.581 38.7147V32.0968H126.949C128.192 32.0968 129.199 33.1042 129.199 34.3469V38.7147H122.581Z" fill="#356697"/>
</g>
<g id="Group_47">
<path id="rect-8141487_23" d="M58.5857 38.5162H51.9678V45.1341H58.5857V38.5162Z" fill="#356697"/>
</g>
<g id="Group_48">
<path id="t-8141487_4" d="M71.4248 38.5162V42.884C71.4248 44.1267 70.4174 45.1341 69.1747 45.1341H67.057C65.8143 45.1341 64.8069 44.1267 64.8069 42.884V38.5162H71.4248Z" fill="#356697"/>
</g>
<g id="Group_49">
<path id="empty-8141487_3" d="M77.6455 40.4089V43.248C77.6455 44.2936 78.4926 45.1341 79.5382 45.1341H82.3773C83.4296 45.1341 84.27 44.287 84.27 43.2414V40.4089C84.2634 39.3566 83.4163 38.5162 82.3707 38.5162H79.5382C78.4926 38.5162 77.6455 39.3633 77.6455 40.4089Z" fill="#356697"/>
</g>
<g id="Group_50">
<path id="t-8141487_5" d="M97.1025 38.5162V42.884C97.1025 44.1267 96.0951 45.1341 94.8525 45.1341H92.7347C91.492 45.1341 90.4846 44.1267 90.4846 42.884V38.5162H97.1025Z" fill="#356697"/>
</g>
<g id="Group_51">
<path id="rect-8141487_24" d="M109.941 38.5162H103.323V45.1341H109.941V38.5162Z" fill="#356697"/>
</g>
<g id="Group_52">
<path id="t-8141487_6" d="M122.78 38.5162V42.884C122.78 44.1267 121.773 45.1341 120.53 45.1341H118.412C117.17 45.1341 116.162 44.1267 116.162 42.884V38.5162H122.78Z" fill="#356697"/>
</g>
<g id="Group_53">
<path id="empty-8141487_4" d="M129.001 40.4089V43.248C129.001 44.2936 129.848 45.1341 130.894 45.1341H133.733C134.785 45.1341 135.625 44.287 135.625 43.2414V40.4089C135.619 39.3566 134.772 38.5162 133.726 38.5162H130.894C129.848 38.5162 129.001 39.3633 129.001 40.4089Z" fill="#356697"/>
</g>
<g id="Group_54">
<path id="n_rb-8141487_4" d="M50.1484 51.4211V51.5535H52.1669V49.535H52.0345C52.0345 50.5807 51.1874 51.4211 50.1484 51.4211Z" fill="#356697"/>
</g>
<g id="Group_55">
<path id="rect-8141487_25" d="M58.5857 44.9355H51.9678V51.5534H58.5857V44.9355Z" fill="#356697"/>
</g>
<g id="Group_56">
<path id="t-8141487_7" d="M109.941 44.9355V49.3034C109.941 50.5461 108.934 51.5534 107.691 51.5534H105.574C104.331 51.5534 103.324 50.5461 103.324 49.3034V44.9355H109.941Z" fill="#356697"/>
</g>
<g id="Group_57">
<path id="empty-8141487_5" d="M7.03223 53.2476V56.0867C7.03223 57.1323 7.87932 57.9728 8.92495 57.9728H11.764C12.8163 57.9728 13.6567 57.1257 13.6567 56.0801V53.2476C13.6501 52.1954 12.803 51.3549 11.7574 51.3549H8.92495C7.87932 51.3549 7.03223 52.202 7.03223 53.2476Z" fill="#356697"/>
</g>
<g id="Group_58">
<path id="empty-8141487_6" d="M19.8711 53.2476V56.0867C19.8711 57.1323 20.7182 57.9728 21.7638 57.9728H24.6029C25.6551 57.9728 26.4956 57.1257 26.4956 56.0801V53.2476C26.489 52.1954 25.6419 51.3549 24.5963 51.3549H21.7638C20.7182 51.3549 19.8711 52.202 19.8711 53.2476Z" fill="#356697"/>
</g>
<g id="Group_59">
<path id="n_rb-8141487_5" d="M30.8906 57.8404V57.9728H32.9091V55.9543H32.7767C32.7767 57 31.9296 57.8404 30.8906 57.8404Z" fill="#356697"/>
</g>
<g id="Group_60">
<path id="rb-8141487_3" d="M39.3281 57.9728H32.7102V53.605C32.7102 52.3623 33.7176 51.3549 34.9603 51.3549H39.3281V57.9728Z" fill="#356697"/>
</g>
<g id="Group_61">
<path id="rect-8141487_26" d="M45.7478 51.3549H39.1299V57.9728H45.7478V51.3549Z" fill="#356697"/>
</g>
<g id="Group_62">
<path id="rect-8141487_27" d="M52.1667 51.3549H45.5488V57.9728H52.1667V51.3549Z" fill="#356697"/>
</g>
<g id="Group_63">
<path id="lt-8141487" d="M51.9678 51.3549H58.5857V55.7227C58.5857 56.9654 57.5783 57.9728 56.3356 57.9728H51.9678V51.3549Z" fill="#356697"/>
</g>
<g id="Group_64">
<path id="r-8141487_2" d="M77.8447 57.9728H73.4769C72.2342 57.9728 71.2268 56.9654 71.2268 55.7228V53.605C71.2268 52.3623 72.2342 51.3549 73.4769 51.3549H77.8447V57.9728Z" fill="#356697"/>
</g>
<g id="Group_65">
<path id="rect-8141487_28" d="M84.2634 51.3549H77.6455V57.9728H84.2634V51.3549Z" fill="#356697"/>
</g>
<g id="Group_66">
<path id="rect-8141487_29" d="M90.6833 51.3549H84.0654V57.9728H90.6833V51.3549Z" fill="#356697"/>
</g>
<g id="Group_67">
<path id="lb-8141487" d="M90.4844 57.9728V51.3549H94.8522C96.0949 51.3549 97.1023 52.3623 97.1023 53.605V57.9728H90.4844Z" fill="#356697"/>
</g>
<g id="Group_68">
<path id="empty-8141487_7" d="M109.742 53.2476V56.0867C109.742 57.1323 110.589 57.9728 111.635 57.9728H114.474C115.526 57.9728 116.367 57.1257 116.367 56.0801V53.2476C116.36 52.1954 115.513 51.3549 114.467 51.3549H111.635C110.589 51.3549 109.742 52.202 109.742 53.2476Z" fill="#356697"/>
</g>
<g id="Group_69">
<path id="r-8141487_3" d="M142.038 57.9728H137.67C136.428 57.9728 135.42 56.9654 135.42 55.7228V53.605C135.42 52.3623 136.428 51.3549 137.67 51.3549H142.038V57.9728Z" fill="#356697"/>
</g>
<g id="Group_70">
<path id="rect-8141487_30" d="M148.457 51.3549H141.839V57.9728H148.457V51.3549Z" fill="#356697"/>
</g>
<g id="Group_71">
<path id="lb-8141487_2" d="M148.259 57.9728V51.3549H152.627C153.869 51.3549 154.877 52.3623 154.877 53.605V57.9728H148.259Z" fill="#356697"/>
</g>
<g id="Group_72">
<path id="r-8141487_4" d="M167.716 57.9728H163.348C162.105 57.9728 161.098 56.9654 161.098 55.7228V53.605C161.098 52.3623 162.105 51.3549 163.348 51.3549H167.716V57.9728Z" fill="#356697"/>
</g>
<g id="Group_73">
<path id="l-8141487_6" d="M167.517 57.9728V51.3549H171.884C173.127 51.3549 174.135 52.3623 174.135 53.605V57.9728H167.517Z" fill="#356697"/>
</g>
<g id="Group_74">
<path id="b-8141487_7" d="M180.355 57.9728V53.605C180.355 52.3623 181.363 51.3549 182.606 51.3549H184.723C185.966 51.3549 186.973 52.3623 186.973 53.605V57.9728H180.355Z" fill="#356697"/>
</g>
<g id="Group_75">
<path id="b-8141487_8" d="M0.613281 64.3922L0.613281 60.0244C0.613281 58.7817 1.62068 57.7743 2.86337 57.7743H4.9811C6.22379 57.7743 7.23118 58.7817 7.23118 60.0244V64.3922H0.613281Z" fill="#356697"/>
</g>
<g id="Group_76">
<path id="empty-8141487_8" d="M13.4521 59.667V62.5061C13.4521 63.5517 14.2992 64.3922 15.3449 64.3922H18.1839C19.2362 64.3922 20.0767 63.5451 20.0767 62.4995V59.667C20.0701 58.6148 19.223 57.7743 18.1773 57.7743H15.3449C14.2992 57.7743 13.4521 58.6214 13.4521 59.667Z" fill="#356697"/>
</g>
<g id="Group_77">
<path id="r-8141487_5" d="M32.9092 64.3922H28.5414C27.2987 64.3922 26.2913 63.3848 26.2913 62.1421V60.0244C26.2913 58.7817 27.2987 57.7743 28.5414 57.7743H32.9092V64.3922Z" fill="#356697"/>
</g>
<g id="Group_78">
<path id="rect-8141487_31" d="M39.3279 57.7743H32.71V64.3922H39.3279V57.7743Z" fill="#356697"/>
</g>
<g id="Group_79">
<path id="rect-8141487_32" d="M52.1667 57.7743H45.5488V64.3922H52.1667V57.7743Z" fill="#356697"/>
</g>
<g id="Group_80">
<path id="b-8141487_9" d="M58.3877 64.3922V60.0244C58.3877 58.7817 59.3951 57.7743 60.6378 57.7743H62.7555C63.9982 57.7743 65.0056 58.7817 65.0056 60.0244V64.3922H58.3877Z" fill="#356697"/>
</g>
<g id="Group_81">
<path id="t-8141487_8" d="M84.2637 57.7743V62.1421C84.2637 63.3848 83.2563 64.3922 82.0136 64.3922H79.8959C78.6532 64.3922 77.6458 63.3848 77.6458 62.1421V57.7743H84.2637Z" fill="#356697"/>
</g>
<g id="Group_82">
<path id="rect-8141487_33" d="M97.1023 57.7743H90.4844V64.3922H97.1023V57.7743Z" fill="#356697"/>
</g>
<g id="Group_83">
<path id="r-8141487_6" d="M129.199 64.3922H124.831C123.589 64.3922 122.581 63.3848 122.581 62.1421V60.0244C122.581 58.7817 123.589 57.7743 124.831 57.7743H129.199V64.3922Z" fill="#356697"/>
</g>
<g id="Group_84">
<path id="lb-8141487_3" d="M129.001 64.3922V57.7743H133.369C134.611 57.7743 135.619 58.7817 135.619 60.0244V64.3922H129.001Z" fill="#356697"/>
</g>
<g id="Group_85">
<path id="rect-8141487_34" d="M148.457 57.7743H141.839V64.3922H148.457V57.7743Z" fill="#356697"/>
</g>
<g id="Group_86">
<path id="rect-8141487_35" d="M154.877 57.7743H148.259V64.3922H154.877V57.7743Z" fill="#356697"/>
</g>
<g id="Group_87">
<path id="t-8141487_9" d="M186.974 57.7743V62.1421C186.974 63.3848 185.966 64.3922 184.724 64.3922H182.606C181.363 64.3922 180.356 63.3848 180.356 62.1421V57.7743H186.974Z" fill="#356697"/>
</g>
<g id="Group_88">
<path id="rt-8141487_2" d="M7.23145 64.1937V70.8116H2.86363C1.62094 70.8116 0.613543 69.8042 0.613543 68.5615V64.1937H7.23145Z" fill="#356697"/>
</g>
<g id="Group_89">
<path id="l-8141487_7" d="M7.03223 70.8116V64.1937H11.4C12.6427 64.1937 13.6501 65.2011 13.6501 66.4438V70.8116H7.03223Z" fill="#356697"/>
</g>
<g id="Group_90">
<path id="empty-8141487_9" d="M19.8711 66.0864V68.9255C19.8711 69.9711 20.7182 70.8116 21.7638 70.8116H24.6029C25.6551 70.8116 26.4956 69.9645 26.4956 68.9188V66.0864C26.489 65.0341 25.6419 64.1937 24.5963 64.1937H21.7638C20.7182 64.1937 19.8711 65.0408 19.8711 66.0864Z" fill="#356697"/>
</g>
<g id="Group_91">
<path id="rt-8141487_3" d="M39.3281 64.1937V70.8116H34.9603C33.7176 70.8116 32.7102 69.8042 32.7102 68.5615V64.1937H39.3281Z" fill="#356697"/>
</g>
<g id="Group_92">
<path id="rect-8141487_36" d="M45.7478 64.1937H39.1299V70.8116H45.7478V64.1937Z" fill="#356697"/>
</g>
<g id="Group_93">
<path id="lt-8141487_2" d="M45.5488 64.1937H52.1667V68.5615C52.1667 69.8042 51.1593 70.8116 49.9166 70.8116H45.5488V64.1937Z" fill="#356697"/>
</g>
<g id="Group_94">
<path id="n_rb-8141487_6" d="M56.5674 70.6792V70.8116H58.5858V68.7931H58.4535C58.4535 69.8387 57.6064 70.6792 56.5674 70.6792Z" fill="#356697"/>
</g>
<g id="Group_95">
<path id="rect-8141487_37" d="M65.0056 64.1937H58.3877V70.8116H65.0056V64.1937Z" fill="#356697"/>
</g>
<g id="Group_96">
<path id="b-8141487_10" d="M71.2266 70.8116V66.4438C71.2266 65.2011 72.234 64.1937 73.4766 64.1937H75.5944C76.8371 64.1937 77.8445 65.2011 77.8445 66.4438V70.8116H71.2266Z" fill="#356697"/>
</g>
<g id="Group_97">
<path id="rt-8141487_4" d="M97.1025 64.1937V70.8116H92.7347C91.492 70.8116 90.4846 69.8042 90.4846 68.5615V64.1937H97.1025Z" fill="#356697"/>
</g>
<g id="Group_98">
<path id="lb-8141487_4" d="M96.9033 70.8116V64.1937H101.271C102.514 64.1937 103.521 65.2011 103.521 66.4438V70.8116H96.9033Z" fill="#356697"/>
</g>
<g id="Group_99">
<path id="t-8141487_10" d="M135.619 64.1937V68.5615C135.619 69.8042 134.612 70.8116 133.369 70.8116H131.251C130.009 70.8116 129.001 69.8042 129.001 68.5615V64.1937H135.619Z" fill="#356697"/>
</g>
<g id="Group_100">
<path id="n_rb-8141487_7" d="M140.02 70.6792V70.8116H142.038V68.7931H141.906C141.906 69.8387 141.059 70.6792 140.02 70.6792Z" fill="#356697"/>
</g>
<g id="Group_101">
<path id="rect-8141487_38" d="M148.457 64.1937H141.839V70.8116H148.457V64.1937Z" fill="#356697"/>
</g>
<g id="Group_102">
<path id="rect-8141487_39" d="M154.877 64.1937H148.259V70.8116H154.877V64.1937Z" fill="#356697"/>
</g>
<g id="Group_103">
<path id="lb-8141487_5" d="M154.678 70.8116V64.1937H159.046C160.288 64.1937 161.296 65.2011 161.296 66.4438V70.8116H154.678Z" fill="#356697"/>
</g>
<g id="Group_104">
<path id="n_rb-8141487_8" d="M165.697 70.6792V70.8116H167.716V68.7931H167.583C167.583 69.8387 166.736 70.6792 165.697 70.6792Z" fill="#356697"/>
</g>
<g id="Group_105">
<path id="rb-8141487_4" d="M174.135 70.8116H167.517V66.4438C167.517 65.2011 168.524 64.1937 169.767 64.1937H174.135V70.8116Z" fill="#356697"/>
</g>
<g id="Group_106">
<path id="lb-8141487_6" d="M173.937 70.8116V64.1937H178.304C179.547 64.1937 180.554 65.2011 180.554 66.4438V70.8116H173.937Z" fill="#356697"/>
</g>
<g id="Group_107">
<path id="n_rb-8141487_9" d="M11.6318 77.0986V77.2309H13.6503V75.2125H13.5179C13.5179 76.2581 12.6708 77.0986 11.6318 77.0986Z" fill="#356697"/>
</g>
<g id="Group_108">
<path id="b-8141487_11" d="M13.4521 77.231V72.8631C13.4521 71.6205 14.4595 70.6131 15.7022 70.6131H17.82C19.0627 70.6131 20.0701 71.6205 20.0701 72.8631V77.231H13.4521Z" fill="#356697"/>
</g>
<g id="Group_109">
<path id="empty-8141487_10" d="M26.291 72.5058V75.3448C26.291 76.3905 27.1381 77.2309 28.1837 77.2309H31.0228C32.0751 77.2309 32.9155 76.3838 32.9155 75.3382V72.5058C32.9089 71.4535 32.0618 70.613 31.0162 70.613H28.1837C27.1381 70.613 26.291 71.4601 26.291 72.5058Z" fill="#356697"/>
</g>
<g id="Group_110">
<path id="rb-8141487_5" d="M58.5859 77.231H51.968V72.8631C51.968 71.6205 52.9754 70.6131 54.2181 70.6131H58.5859V77.231Z" fill="#356697"/>
</g>
<g id="Group_111">
<path id="rect-8141487_40" d="M65.0056 70.613H58.3877V77.2309H65.0056V70.613Z" fill="#356697"/>
</g>
<g id="Group_112">
<path id="n_rb-8141487_10" d="M69.4062 77.0986V77.2309H71.4247V75.2125H71.2924C71.2924 76.2581 70.4453 77.0986 69.4062 77.0986Z" fill="#356697"/>
</g>
<g id="Group_113">
<path id="rect-8141487_41" d="M77.8445 70.613H71.2266V77.2309H77.8445V70.613Z" fill="#356697"/>
</g>
<g id="Group_114">
<path id="rt-8141487_5" d="M103.521 70.613V77.2309H99.1537C97.911 77.2309 96.9036 76.2235 96.9036 74.9809V70.613H103.521Z" fill="#356697"/>
</g>
<g id="Group_115">
<path id="l-8141487_8" d="M103.323 77.231V70.6131H107.691C108.934 70.6131 109.941 71.6205 109.941 72.8631V77.231H103.323Z" fill="#356697"/>
</g>
<g id="Group_116">
<path id="empty-8141487_11" d="M116.162 72.5058V75.3448C116.162 76.3905 117.009 77.2309 118.055 77.2309H120.894C121.946 77.2309 122.787 76.3838 122.787 75.3382V72.5058C122.78 71.4535 121.933 70.613 120.887 70.613H118.055C117.009 70.613 116.162 71.4601 116.162 72.5058Z" fill="#356697"/>
</g>
<g id="Group_117">
<path id="r-8141487_7" d="M142.038 77.231H137.67C136.428 77.231 135.42 76.2236 135.42 74.9809V72.8631C135.42 71.6205 136.428 70.6131 137.67 70.6131H142.038V77.231Z" fill="#356697"/>
</g>
<g id="Group_118">
<path id="rect-8141487_42" d="M148.457 70.613H141.839V77.2309H148.457V70.613Z" fill="#356697"/>
</g>
<g id="Group_119">
<path id="rt-8141487_6" d="M161.296 70.613V77.2309H156.928C155.685 77.2309 154.678 76.2235 154.678 74.9809V70.613H161.296Z" fill="#356697"/>
</g>
<g id="Group_120">
<path id="rect-8141487_43" d="M167.716 70.613H161.098V77.2309H167.716V70.613Z" fill="#356697"/>
</g>
<g id="Group_121">
<path id="rect-8141487_44" d="M174.135 70.613H167.517V77.2309H174.135V70.613Z" fill="#356697"/>
</g>
<g id="Group_122">
<path id="lt-8141487_3" d="M173.937 70.613H180.554V74.9809C180.554 76.2235 179.547 77.2309 178.304 77.2309H173.937V70.613Z" fill="#356697"/>
</g>
<g id="Group_123">
<path id="rb-8141487_6" d="M7.23145 83.6503H0.613543L0.613543 79.2825C0.613543 78.0398 1.62094 77.0324 2.86363 77.0324H7.23145L7.23145 83.6503Z" fill="#356697"/>
</g>
<g id="Group_124">
<path id="rect-8141487_45" d="M13.6501 77.0324H7.03223V83.6503H13.6501V77.0324Z" fill="#356697"/>
</g>
<g id="Group_125">
<path id="rect-8141487_46" d="M20.0701 77.0324H13.4521V83.6503H20.0701V77.0324Z" fill="#356697"/>
</g>
<g id="Group_126">
<path id="empty-8141487_12" d="M39.1299 78.9251V81.7642C39.1299 82.8098 39.977 83.6503 41.0226 83.6503H43.8617C44.9139 83.6503 45.7544 82.8032 45.7544 81.7576V78.9251C45.7478 77.8729 44.9007 77.0324 43.8551 77.0324H41.0226C39.977 77.0324 39.1299 77.8795 39.1299 78.9251Z" fill="#356697"/>
</g>
<g id="Group_127">
<path id="rect-8141487_47" d="M58.5857 77.0324H51.9678V83.6503H58.5857V77.0324Z" fill="#356697"/>
</g>
<g id="Group_128">
<path id="rect-8141487_48" d="M65.0056 77.0324H58.3877V83.6503H65.0056V77.0324Z" fill="#356697"/>
</g>
<g id="Group_129">
<path id="rect-8141487_49" d="M71.4245 77.0324H64.8066V83.6503H71.4245V77.0324Z" fill="#356697"/>
</g>
<g id="Group_130">
<path id="rect-8141487_50" d="M77.8445 77.0324H71.2266V83.6503H77.8445V77.0324Z" fill="#356697"/>
</g>
<g id="Group_131">
<path id="l-8141487_9" d="M77.6455 83.6503V77.0324H82.0133C83.256 77.0324 84.2634 78.0398 84.2634 79.2825V83.6503H77.6455Z" fill="#356697"/>
</g>
<g id="Group_132">
<path id="n_rb-8141487_11" d="M107.923 83.5179V83.6503H109.941V81.6318H109.809C109.809 82.6775 108.962 83.5179 107.923 83.5179Z" fill="#356697"/>
</g>
<g id="Group_133">
<path id="b-8141487_12" d="M109.742 83.6503V79.2825C109.742 78.0398 110.75 77.0324 111.992 77.0324H114.11C115.353 77.0324 116.36 78.0398 116.36 79.2825V83.6503H109.742Z" fill="#356697"/>
</g>
<g id="Group_134">
<path id="rb-8141487_7" d="M129.199 83.6503H122.581V79.2825C122.581 78.0398 123.589 77.0324 124.831 77.0324H129.199V83.6503Z" fill="#356697"/>
</g>
<g id="Group_135">
<path id="lb-8141487_7" d="M129.001 83.6503V77.0324H133.369C134.611 77.0324 135.619 78.0398 135.619 79.2825V83.6503H129.001Z" fill="#356697"/>
</g>
<g id="Group_136">
<path id="rt-8141487_7" d="M148.457 77.0324V83.6503H144.089C142.847 83.6503 141.839 82.6429 141.839 81.4002V77.0324H148.457Z" fill="#356697"/>
</g>
<g id="Group_137">
<path id="lb-8141487_8" d="M148.259 83.6503V77.0324H152.627C153.869 77.0324 154.877 78.0398 154.877 79.2825V83.6503H148.259Z" fill="#356697"/>
</g>
<g id="Group_138">
<path id="rect-8141487_51" d="M167.716 77.0324H161.098V83.6503H167.716V77.0324Z" fill="#356697"/>
</g>
<g id="Group_139">
<path id="rect-8141487_52" d="M7.23118 83.4518H0.613281V90.0697H7.23118V83.4518Z" fill="#356697"/>
</g>
<g id="Group_140">
<path id="rect-8141487_53" d="M13.6501 83.4518H7.03223V90.0697H13.6501V83.4518Z" fill="#356697"/>
</g>
<g id="Group_141">
<path id="rect-8141487_54" d="M20.0701 83.4518H13.4521V90.0697H20.0701V83.4518Z" fill="#356697"/>
</g>
<g id="Group_142">
<path id="rect-8141487_55" d="M26.489 83.4518H19.8711V90.0697H26.489V83.4518Z" fill="#356697"/>
</g>
<g id="Group_143">
<path id="l-8141487_10" d="M26.291 90.0697V83.4518H30.6588C31.9015 83.4518 32.9089 84.4592 32.9089 85.7019V90.0697H26.291Z" fill="#356697"/>
</g>
<g id="Group_144">
<path id="n_rb-8141487_12" d="M50.1484 89.9373V90.0697H52.1669V88.0512H52.0345C52.0345 89.0968 51.1874 89.9373 50.1484 89.9373Z" fill="#356697"/>
</g>
<g id="Group_145">
<path id="rect-8141487_56" d="M58.5857 83.4518H51.9678V90.0697H58.5857V83.4518Z" fill="#356697"/>
</g>
<g id="Group_146">
<path id="rect-8141487_57" d="M65.0056 83.4518H58.3877V90.0697H65.0056V83.4518Z" fill="#356697"/>
</g>
<g id="Group_147">
<path id="rb-8141487_8" d="M109.941 90.0697H103.324V85.7019C103.324 84.4592 104.331 83.4518 105.574 83.4518H109.941V90.0697Z" fill="#356697"/>
</g>
<g id="Group_148">
<path id="rect-8141487_58" d="M116.36 83.4518H109.742V90.0697H116.36V83.4518Z" fill="#356697"/>
</g>
<g id="Group_149">
<path id="rt-8141487_8" d="M129.199 83.4518V90.0697H124.831C123.589 90.0697 122.581 89.0623 122.581 87.8196V83.4518H129.199Z" fill="#356697"/>
</g>
<g id="Group_150">
<path id="rect-8141487_59" d="M135.619 83.4518H129.001V90.0697H135.619V83.4518Z" fill="#356697"/>
</g>
<g id="Group_151">
<path id="lb-8141487_9" d="M135.42 90.0697V83.4518H139.788C141.03 83.4518 142.038 84.4592 142.038 85.7019V90.0697H135.42Z" fill="#356697"/>
</g>
<g id="Group_152">
<path id="t-8141487_11" d="M154.877 83.4518V87.8196C154.877 89.0623 153.87 90.0697 152.627 90.0697H150.509C149.266 90.0697 148.259 89.0623 148.259 87.8196V83.4518H154.877Z" fill="#356697"/>
</g>
<g id="Group_153">
<path id="t-8141487_12" d="M167.716 83.4518V87.8196C167.716 89.0623 166.708 90.0697 165.466 90.0697H163.348C162.105 90.0697 161.098 89.0623 161.098 87.8196V83.4518H167.716Z" fill="#356697"/>
</g>
<g id="Group_154">
<path id="rt-8141487_9" d="M7.23145 89.8711V96.489H2.86363C1.62094 96.489 0.613543 95.4816 0.613543 94.2389V89.8711H7.23145Z" fill="#356697"/>
</g>
<g id="Group_155">
<path id="rect-8141487_60" d="M13.6501 89.8711H7.03223V96.489H13.6501V89.8711Z" fill="#356697"/>
</g>
<g id="Group_156">
<path id="rect-8141487_61" d="M20.0701 89.8711H13.4521V96.489H20.0701V89.8711Z" fill="#356697"/>
</g>
<g id="Group_157">
<path id="lt-8141487_4" d="M19.8711 89.8711H26.489V94.2389C26.489 95.4816 25.4816 96.489 24.2389 96.489H19.8711V89.8711Z" fill="#356697"/>
</g>
<g id="Group_158">
<path id="r-8141487_8" d="M39.3281 96.489H34.9603C33.7176 96.489 32.7102 95.4816 32.7102 94.2389V92.1212C32.7102 90.8785 33.7176 89.8711 34.9603 89.8711H39.3281V96.489Z" fill="#356697"/>
</g>
<g id="Group_159">
<path id="rect-8141487_62" d="M45.7478 89.8711H39.1299V96.489H45.7478V89.8711Z" fill="#356697"/>
</g>
<g id="Group_160">
<path id="rect-8141487_63" d="M52.1667 89.8711H45.5488V96.489H52.1667V89.8711Z" fill="#356697"/>
</g>
<g id="Group_161">
<path id="rect-8141487_64" d="M58.5857 89.8711H51.9678V96.489H58.5857V89.8711Z" fill="#356697"/>
</g>
<g id="Group_162">
<path id="rect-8141487_65" d="M65.0056 89.8711H58.3877V96.489H65.0056V89.8711Z" fill="#356697"/>
</g>
<g id="Group_163">
<path id="b-8141487_13" d="M71.2266 96.489V92.1212C71.2266 90.8785 72.234 89.8711 73.4766 89.8711H75.5944C76.8371 89.8711 77.8445 90.8785 77.8445 92.1212V96.489H71.2266Z" fill="#356697"/>
</g>
<g id="Group_164">
<path id="empty-8141487_13" d="M90.4844 91.7638V94.6029C90.4844 95.6485 91.3315 96.489 92.3771 96.489H95.2162C96.2684 96.489 97.1089 95.6419 97.1089 94.5963V91.7638C97.1023 90.7116 96.2552 89.8711 95.2096 89.8711H92.3771C91.3315 89.8711 90.4844 90.7182 90.4844 91.7638Z" fill="#356697"/>
</g>
<g id="Group_165">
<path id="rt-8141487_10" d="M109.941 89.8711V96.489H105.574C104.331 96.489 103.324 95.4816 103.324 94.2389V89.8711H109.941Z" fill="#356697"/>
</g>
<g id="Group_166">
<path id="rect-8141487_66" d="M116.36 89.8711H109.742V96.489H116.36V89.8711Z" fill="#356697"/>
</g>
<g id="Group_167">
<path id="lb-8141487_10" d="M116.162 96.489V89.8711H120.53C121.773 89.8711 122.78 90.8785 122.78 92.1212V96.489H116.162Z" fill="#356697"/>
</g>
<g id="Group_168">
<path id="rect-8141487_67" d="M135.619 89.8711H129.001V96.489H135.619V89.8711Z" fill="#356697"/>
</g>
<g id="Group_169">
<path id="rect-8141487_68" d="M142.038 89.8711H135.42V96.489H142.038V89.8711Z" fill="#356697"/>
</g>
<g id="Group_170">
<path id="lb-8141487_11" d="M141.839 96.489V89.8711H146.207C147.449 89.8711 148.457 90.8785 148.457 92.1212V96.489H141.839Z" fill="#356697"/>
</g>
<g id="Group_171">
<path id="n_rb-8141487_13" d="M178.535 96.3567V96.489H180.554V94.4706H180.421C180.421 95.5162 179.574 96.3567 178.535 96.3567Z" fill="#356697"/>
</g>
<g id="Group_172">
<path id="b-8141487_14" d="M180.355 96.489V92.1212C180.355 90.8785 181.363 89.8711 182.606 89.8711H184.723C185.966 89.8711 186.973 90.8785 186.973 92.1212V96.489H180.355Z" fill="#356697"/>
</g>
<g id="Group_173">
<path id="rect-8141487_69" d="M20.0701 96.2905H13.4521V102.908H20.0701V96.2905Z" fill="#356697"/>
</g>
<g id="Group_174">
<path id="n_rb-8141487_14" d="M24.4707 102.776V102.908H26.4892V100.89H26.3568C26.3568 101.936 25.5097 102.776 24.4707 102.776Z" fill="#356697"/>
</g>
<g id="Group_175">
<path id="b-8141487_15" d="M26.291 102.908V98.5406C26.291 97.2979 27.2984 96.2905 28.5411 96.2905H30.6588C31.9015 96.2905 32.9089 97.2979 32.9089 98.5406V102.908H26.291Z" fill="#356697"/>
</g>
<g id="Group_176">
<path id="rect-8141487_70" d="M52.1667 96.2905H45.5488V102.908H52.1667V96.2905Z" fill="#356697"/>
</g>
<g id="Group_177">
<path id="rect-8141487_71" d="M58.5857 96.2905H51.9678V102.908H58.5857V96.2905Z" fill="#356697"/>
</g>
<g id="Group_178">
<path id="rect-8141487_72" d="M65.0056 96.2905H58.3877V102.908H65.0056V96.2905Z" fill="#356697"/>
</g>
<g id="Group_179">
<path id="rt-8141487_11" d="M77.8447 96.2905V102.908H73.4769C72.2342 102.908 71.2268 101.901 71.2268 100.658V96.2905H77.8447Z" fill="#356697"/>
</g>
<g id="Group_180">
<path id="l-8141487_11" d="M77.6455 102.908V96.2905H82.0133C83.256 96.2905 84.2634 97.2979 84.2634 98.5406V102.908H77.6455Z" fill="#356697"/>
</g>
<g id="Group_181">
<path id="empty-8141487_14" d="M96.9033 98.1832V101.022C96.9033 102.068 97.7504 102.908 98.796 102.908H101.635C102.687 102.908 103.528 102.061 103.528 101.016V98.1832C103.521 97.1309 102.674 96.2905 101.629 96.2905H98.796C97.7504 96.2905 96.9033 97.1376 96.9033 98.1832Z" fill="#356697"/>
</g>
<g id="Group_182">
<path id="rt-8141487_12" d="M116.36 96.2905V102.908H111.993C110.75 102.908 109.742 101.901 109.742 100.658V96.2905H116.36Z" fill="#356697"/>
</g>
<g id="Group_183">
<path id="rect-8141487_73" d="M122.78 96.2905H116.162V102.908H122.78V96.2905Z" fill="#356697"/>
</g>
<g id="Group_184">
<path id="n_rb-8141487_15" d="M127.181 102.776V102.908H129.199V100.89H129.067C129.067 101.936 128.22 102.776 127.181 102.776Z" fill="#356697"/>
</g>
<g id="Group_185">
<path id="rect-8141487_74" d="M135.619 96.2905H129.001V102.908H135.619V96.2905Z" fill="#356697"/>
</g>
<g id="Group_186">
<path id="rt-8141487_13" d="M148.457 96.2905V102.908H144.089C142.847 102.908 141.839 101.901 141.839 100.658V96.2905H148.457Z" fill="#356697"/>
</g>
<g id="Group_187">
<path id="lb-8141487_12" d="M148.259 102.908V96.2905H152.627C153.869 96.2905 154.877 97.2979 154.877 98.5406V102.908H148.259Z" fill="#356697"/>
</g>
<g id="Group_188">
<path id="rb-8141487_9" d="M180.555 102.908H173.937V98.5406C173.937 97.2979 174.944 96.2905 176.187 96.2905H180.555V102.908Z" fill="#356697"/>
</g>
<g id="Group_189">
<path id="lt-8141487_5" d="M180.355 96.2905H186.973V100.658C186.973 101.901 185.966 102.908 184.723 102.908H180.355V96.2905Z" fill="#356697"/>
</g>
<g id="Group_190">
<path id="empty-8141487_15" d="M0.613281 104.603V107.442C0.613281 108.487 1.46037 109.328 2.506 109.328H5.34508C6.39733 109.328 7.2378 108.481 7.2378 107.435V104.603C7.23118 103.55 6.38409 102.71 5.33846 102.71H2.506C1.46037 102.71 0.613281 103.557 0.613281 104.603Z" fill="#356697"/>
</g>
<g id="Group_191">
<path id="rt-8141487_14" d="M20.0703 102.71V109.328H15.7025C14.4598 109.328 13.4524 108.32 13.4524 107.078V102.71H20.0703Z" fill="#356697"/>
</g>
<g id="Group_192">
<path id="rect-8141487_75" d="M26.489 102.71H19.8711V109.328H26.489V102.71Z" fill="#356697"/>
</g>
<g id="Group_193">
<path id="rect-8141487_76" d="M32.9089 102.71H26.291V109.328H32.9089V102.71Z" fill="#356697"/>
</g>
<g id="Group_194">
<path id="r-8141487_9" d="M45.748 109.328H41.3802C40.1375 109.328 39.1301 108.32 39.1301 107.078V104.96C39.1301 103.717 40.1375 102.71 41.3802 102.71H45.748V109.328Z" fill="#356697"/>
</g>
<g id="Group_195">
<path id="lt-8141487_6" d="M45.5488 102.71H52.1667V107.078C52.1667 108.32 51.1593 109.328 49.9166 109.328H45.5488V102.71Z" fill="#356697"/>
</g>
<g id="Group_196">
<path id="rt-8141487_15" d="M65.0059 102.71V109.328H60.638C59.3954 109.328 58.388 108.32 58.388 107.078V102.71H65.0059Z" fill="#356697"/>
</g>
<g id="Group_197">
<path id="lb-8141487_13" d="M64.8066 109.328V102.71H69.1745C70.4171 102.71 71.4245 103.717 71.4245 104.96V109.328H64.8066Z" fill="#356697"/>
</g>
<g id="Group_198">
<path id="n_rb-8141487_16" d="M88.6641 109.195V109.328H90.6825V107.309H90.5502C90.5502 108.355 89.7031 109.195 88.6641 109.195Z" fill="#356697"/>
</g>
<g id="Group_199">
<path id="b-8141487_16" d="M90.4844 109.328V104.96C90.4844 103.717 91.4918 102.71 92.7345 102.71H94.8522C96.0949 102.71 97.1023 103.717 97.1023 104.96V109.328H90.4844Z" fill="#356697"/>
</g>
<g id="Group_200">
<path id="rect-8141487_77" d="M122.78 102.71H116.162V109.328H122.78V102.71Z" fill="#356697"/>
</g>
<g id="Group_201">
<path id="rect-8141487_78" d="M129.199 102.71H122.581V109.328H129.199V102.71Z" fill="#356697"/>
</g>
<g id="Group_202">
<path id="rect-8141487_79" d="M135.619 102.71H129.001V109.328H135.619V102.71Z" fill="#356697"/>
</g>
<g id="Group_203">
<path id="t-8141487_13" d="M154.877 102.71V107.078C154.877 108.32 153.87 109.328 152.627 109.328H150.509C149.266 109.328 148.259 108.32 148.259 107.078V102.71H154.877Z" fill="#356697"/>
</g>
<g id="Group_204">
<path id="n_rb-8141487_17" d="M172.116 109.195V109.328H174.135V107.309H174.002C174.002 108.355 173.155 109.195 172.116 109.195Z" fill="#356697"/>
</g>
<g id="Group_205">
<path id="rect-8141487_80" d="M180.554 102.71H173.937V109.328H180.554V102.71Z" fill="#356697"/>
</g>
<g id="Group_206">
<path id="empty-8141487_16" d="M7.03223 111.022V113.861C7.03223 114.907 7.87932 115.747 8.92495 115.747H11.764C12.8163 115.747 13.6567 114.9 13.6567 113.854V111.022C13.6501 109.97 12.803 109.129 11.7574 109.129H8.92495C7.87932 109.129 7.03223 109.976 7.03223 111.022Z" fill="#356697"/>
</g>
<g id="Group_207">
<path id="rect-8141487_81" d="M32.9089 109.129H26.291V115.747H32.9089V109.129Z" fill="#356697"/>
</g>
<g id="Group_208">
<path id="empty-8141487_17" d="M51.9678 111.022V113.861C51.9678 114.907 52.8149 115.747 53.8605 115.747H56.6996C57.7518 115.747 58.5923 114.9 58.5923 113.854V111.022C58.5857 109.97 57.7386 109.129 56.693 109.129H53.8605C52.8149 109.129 51.9678 109.976 51.9678 111.022Z" fill="#356697"/>
</g>
<g id="Group_209">
<path id="t-8141487_14" d="M71.4248 109.129V113.497C71.4248 114.74 70.4174 115.747 69.1747 115.747H67.057C65.8143 115.747 64.8069 114.74 64.8069 113.497V109.129H71.4248Z" fill="#356697"/>
</g>
<g id="Group_210">
<path id="r-8141487_10" d="M90.6836 115.747H86.3158C85.0731 115.747 84.0657 114.74 84.0657 113.497V111.379C84.0657 110.137 85.0731 109.129 86.3158 109.129H90.6836V115.747Z" fill="#356697"/>
</g>
<g id="Group_211">
<path id="rect-8141487_82" d="M97.1023 109.129H90.4844V115.747H97.1023V109.129Z" fill="#356697"/>
</g>
<g id="Group_212">
<path id="rect-8141487_83" d="M103.521 109.129H96.9033V115.747H103.521V109.129Z" fill="#356697"/>
</g>
<g id="Group_213">
<path id="lb-8141487_14" d="M103.323 115.747V109.129H107.691C108.934 109.129 109.941 110.137 109.941 111.379V115.747H103.323Z" fill="#356697"/>
</g>
<g id="Group_214">
<path id="rt-8141487_16" d="M122.78 109.129V115.747H118.412C117.17 115.747 116.162 114.74 116.162 113.497V109.129H122.78Z" fill="#356697"/>
</g>
<g id="Group_215">
<path id="rect-8141487_84" d="M129.199 109.129H122.581V115.747H129.199V109.129Z" fill="#356697"/>
</g>
<g id="Group_216">
<path id="rect-8141487_85" d="M135.619 109.129H129.001V115.747H135.619V109.129Z" fill="#356697"/>
</g>
<g id="Group_217">
<path id="empty-8141487_18" d="M141.839 111.022V113.861C141.839 114.907 142.686 115.747 143.732 115.747H146.571C147.623 115.747 148.463 114.9 148.463 113.854V111.022C148.457 109.97 147.61 109.129 146.564 109.129H143.732C142.686 109.129 141.839 109.976 141.839 111.022Z" fill="#356697"/>
</g>
<g id="Group_218">
<path id="rb-8141487_10" d="M167.716 115.747H161.098V111.379C161.098 110.137 162.105 109.129 163.348 109.129H167.716V115.747Z" fill="#356697"/>
</g>
<g id="Group_219">
<path id="rect-8141487_86" d="M174.135 109.129H167.517V115.747H174.135V109.129Z" fill="#356697"/>
</g>
<g id="Group_220">
<path id="rect-8141487_87" d="M180.554 109.129H173.937V115.747H180.554V109.129Z" fill="#356697"/>
</g>
<g id="Group_221">
<path id="lb-8141487_15" d="M180.355 115.747V109.129H184.723C185.966 109.129 186.973 110.137 186.973 111.379V115.747H180.355Z" fill="#356697"/>
</g>
<g id="Group_222">
<path id="empty-8141487_19" d="M0.613281 117.441V120.28C0.613281 121.326 1.46037 122.166 2.506 122.166H5.34508C6.39733 122.166 7.2378 121.319 7.2378 120.274V117.441C7.23118 116.389 6.38409 115.549 5.33846 115.549H2.506C1.46037 115.549 0.613281 116.396 0.613281 117.441Z" fill="#356697"/>
</g>
<g id="Group_223">
<path id="rect-8141487_88" d="M32.9089 115.549H26.291V122.166H32.9089V115.549Z" fill="#356697"/>
</g>
<g id="Group_224">
<path id="r-8141487_11" d="M45.748 122.167H41.3802C40.1375 122.167 39.1301 121.159 39.1301 119.916V117.799C39.1301 116.556 40.1375 115.549 41.3802 115.549H45.748V122.167Z" fill="#356697"/>
</g>
<g id="Group_225">
<path id="lb-8141487_16" d="M45.5488 122.167V115.549H49.9166C51.1593 115.549 52.1667 116.556 52.1667 117.799V122.167H45.5488Z" fill="#356697"/>
</g>
<g id="Group_226">
<path id="empty-8141487_20" d="M58.3877 117.441V120.28C58.3877 121.326 59.2348 122.166 60.2804 122.166H63.1195C64.1717 122.166 65.0122 121.319 65.0122 120.274V117.441C65.0056 116.389 64.1585 115.549 63.1129 115.549H60.2804C59.2348 115.549 58.3877 116.396 58.3877 117.441Z" fill="#356697"/>
</g>
<g id="Group_227">
<path id="b-8141487_17" d="M77.6455 122.167V117.799C77.6455 116.556 78.6529 115.549 79.8956 115.549H82.0133C83.256 115.549 84.2634 116.556 84.2634 117.799V122.167H77.6455Z" fill="#356697"/>
</g>
<g id="Group_228">
<path id="rt-8141487_17" d="M103.521 115.549V122.166H99.1537C97.911 122.166 96.9036 121.159 96.9036 119.916V115.549H103.521Z" fill="#356697"/>
</g>
<g id="Group_229">
<path id="lt-8141487_7" d="M103.323 115.549H109.941V119.916C109.941 121.159 108.934 122.166 107.691 122.166H103.323V115.549Z" fill="#356697"/>
</g>
<g id="Group_230">
<path id="rt-8141487_18" d="M135.619 115.549V122.166H131.251C130.009 122.166 129.001 121.159 129.001 119.916V115.549H135.619Z" fill="#356697"/>
</g>
<g id="Group_231">
<path id="l-8141487_12" d="M135.42 122.167V115.549H139.788C141.03 115.549 142.038 116.556 142.038 117.799V122.167H135.42Z" fill="#356697"/>
</g>
<g id="Group_232">
<path id="empty-8141487_21" d="M148.259 117.441V120.28C148.259 121.326 149.106 122.166 150.152 122.166H152.991C154.043 122.166 154.883 121.319 154.883 120.274V117.441C154.877 116.389 154.03 115.549 152.984 115.549H150.152C149.106 115.549 148.259 116.396 148.259 117.441Z" fill="#356697"/>
</g>
<g id="Group_233">
<path id="t-8141487_15" d="M167.716 115.549V119.916C167.716 121.159 166.708 122.166 165.466 122.166H163.348C162.105 122.166 161.098 121.159 161.098 119.916V115.549H167.716Z" fill="#356697"/>
</g>
<g id="Group_234">
<path id="rt-8141487_19" d="M180.555 115.549V122.166H176.187C174.944 122.166 173.937 121.159 173.937 119.916V115.549H180.555Z" fill="#356697"/>
</g>
<g id="Group_235">
<path id="rect-8141487_89" d="M186.973 115.549H180.355V122.166H186.973V115.549Z" fill="#356697"/>
</g>
<g id="Group_236">
<path id="empty-8141487_22" d="M13.4521 123.861V126.7C13.4521 127.745 14.2992 128.586 15.3449 128.586H18.1839C19.2362 128.586 20.0767 127.739 20.0767 126.693V123.861C20.0701 122.808 19.223 121.968 18.1773 121.968H15.3449C14.2992 121.968 13.4521 122.815 13.4521 123.861Z" fill="#356697"/>
</g>
<g id="Group_237">
<path id="rt-8141487_20" d="M32.9092 121.968V128.586H28.5414C27.2987 128.586 26.2913 127.578 26.2913 126.336V121.968H32.9092Z" fill="#356697"/>
</g>
<g id="Group_238">
<path id="l-8141487_13" d="M32.71 128.586V121.968H37.0778C38.3205 121.968 39.3279 122.975 39.3279 124.218V128.586H32.71Z" fill="#356697"/>
</g>
<g id="Group_239">
<path id="t-8141487_16" d="M52.167 121.968V126.336C52.167 127.578 51.1596 128.586 49.9169 128.586H47.7992C46.5565 128.586 45.5491 127.578 45.5491 126.336V121.968H52.167Z" fill="#356697"/>
</g>
<g id="Group_240">
<path id="empty-8141487_23" d="M64.8066 123.861V126.7C64.8066 127.745 65.6537 128.586 66.6994 128.586H69.5384C70.5907 128.586 71.4312 127.739 71.4312 126.693V123.861C71.4245 122.808 70.5775 121.968 69.5318 121.968H66.6994C65.6537 121.968 64.8066 122.815 64.8066 123.861Z" fill="#356697"/>
</g>
<g id="Group_241">
<path id="n_rb-8141487_18" d="M75.8262 128.453V128.586H77.8446V126.567H77.7123C77.7123 127.613 76.8652 128.453 75.8262 128.453Z" fill="#356697"/>
</g>
<g id="Group_242">
<path id="rect-8141487_90" d="M84.2634 121.968H77.6455V128.586H84.2634V121.968Z" fill="#356697"/>
</g>
<g id="Group_243">
<path id="r-8141487_12" d="M116.36 128.586H111.993C110.75 128.586 109.742 127.578 109.742 126.336V124.218C109.742 122.975 110.75 121.968 111.993 121.968H116.36V128.586Z" fill="#356697"/>
</g>
<g id="Group_244">
<path id="rect-8141487_91" d="M122.78 121.968H116.162V128.586H122.78V121.968Z" fill="#356697"/>
</g>
<g id="Group_245">
<path id="l-8141487_14" d="M122.581 128.586V121.968H126.949C128.192 121.968 129.199 122.975 129.199 124.218V128.586H122.581Z" fill="#356697"/>
</g>
<g id="Group_246">
<path id="t-8141487_17" d="M186.974 121.968V126.336C186.974 127.578 185.966 128.586 184.724 128.586H182.606C181.363 128.586 180.356 127.578 180.356 126.336V121.968H186.974Z" fill="#356697"/>
</g>
<g id="Group_247">
<path id="empty-8141487_24" d="M0.613281 130.28V133.119C0.613281 134.165 1.46037 135.005 2.506 135.005H5.34508C6.39733 135.005 7.2378 134.158 7.2378 133.113V130.28C7.23118 129.228 6.38409 128.387 5.33846 128.387H2.506C1.46037 128.387 0.613281 129.234 0.613281 130.28Z" fill="#356697"/>
</g>
<g id="Group_248">
<path id="empty-8141487_25" d="M19.8711 130.28V133.119C19.8711 134.165 20.7182 135.005 21.7638 135.005H24.6029C25.6551 135.005 26.4956 134.158 26.4956 133.113V130.28C26.489 129.228 25.6419 128.387 24.5963 128.387H21.7638C20.7182 128.387 19.8711 129.234 19.8711 130.28Z" fill="#356697"/>
</g>
<g id="Group_249">
<path id="empty-8141487_26" d="M39.1299 130.28V133.119C39.1299 134.165 39.977 135.005 41.0226 135.005H43.8617C44.9139 135.005 45.7544 134.158 45.7544 133.113V130.28C45.7478 129.228 44.9007 128.387 43.8551 128.387H41.0226C39.977 128.387 39.1299 129.234 39.1299 130.28Z" fill="#356697"/>
</g>
<g id="Group_250">
<path id="rb-8141487_11" d="M58.5859 135.005H51.968V130.637C51.968 129.395 52.9754 128.387 54.2181 128.387H58.5859V135.005Z" fill="#356697"/>
</g>
<g id="Group_251">
<path id="l-8141487_15" d="M58.3877 135.005V128.387H62.7555C63.9982 128.387 65.0056 129.395 65.0056 130.637V135.005H58.3877Z" fill="#356697"/>
</g>
<g id="Group_252">
<path id="rb-8141487_12" d="M77.8447 135.005H71.2268V130.637C71.2268 129.395 72.2342 128.387 73.4769 128.387H77.8447V135.005Z" fill="#356697"/>
</g>
<g id="Group_253">
<path id="rect-8141487_92" d="M84.2634 128.387H77.6455V135.005H84.2634V128.387Z" fill="#356697"/>
</g>
<g id="Group_254">
<path id="r-8141487_13" d="M97.1025 135.005H92.7347C91.492 135.005 90.4846 133.998 90.4846 132.755V130.637C90.4846 129.395 91.492 128.387 92.7347 128.387H97.1025V135.005Z" fill="#356697"/>
</g>
<g id="Group_255">
<path id="l-8141487_16" d="M96.9033 135.005V128.387H101.271C102.514 128.387 103.521 129.395 103.521 130.637V135.005H96.9033Z" fill="#356697"/>
</g>
<g id="Group_256">
<path id="t-8141487_18" d="M122.78 128.387V132.755C122.78 133.998 121.773 135.005 120.53 135.005H118.412C117.17 135.005 116.162 133.998 116.162 132.755V128.387H122.78Z" fill="#356697"/>
</g>
<g id="Group_257">
<path id="rb-8141487_13" d="M135.619 135.005H129.001V130.637C129.001 129.395 130.009 128.387 131.251 128.387H135.619V135.005Z" fill="#356697"/>
</g>
<g id="Group_258">
<path id="rect-8141487_93" d="M142.038 128.387H135.42V135.005H142.038V128.387Z" fill="#356697"/>
</g>
<g id="Group_259">
<path id="rect-8141487_94" d="M148.457 128.387H141.839V135.005H148.457V128.387Z" fill="#356697"/>
</g>
<g id="Group_260">
<path id="rect-8141487_95" d="M154.877 128.387H148.259V135.005H154.877V128.387Z" fill="#356697"/>
</g>
<g id="Group_261">
<path id="rect-8141487_96" d="M161.296 128.387H154.678V135.005H161.296V128.387Z" fill="#356697"/>
</g>
<g id="Group_262">
<path id="rect-8141487_97" d="M167.716 128.387H161.098V135.005H167.716V128.387Z" fill="#356697"/>
</g>
<g id="Group_263">
<path id="l-8141487_17" d="M167.517 135.005V128.387H171.884C173.127 128.387 174.135 129.395 174.135 130.637V135.005H167.517Z" fill="#356697"/>
</g>
<g id="Group_264">
<path id="rect-8141487_98" d="M58.5857 134.807H51.9678V141.425H58.5857V134.807Z" fill="#356697"/>
</g>
<g id="Group_265">
<path id="rect-8141487_99" d="M77.8445 134.807H71.2266V141.425H77.8445V134.807Z" fill="#356697"/>
</g>
<g id="Group_266">
<path id="rect-8141487_100" d="M84.2634 134.807H77.6455V141.425H84.2634V134.807Z" fill="#356697"/>
</g>
<g id="Group_267">
<path id="lb-8141487_17" d="M84.0654 141.425V134.807H88.4332C89.6759 134.807 90.6833 135.814 90.6833 137.057V141.425H84.0654Z" fill="#356697"/>
</g>
<g id="Group_268">
<path id="rect-8141487_101" d="M135.619 134.807H129.001V141.425H135.619V134.807Z" fill="#356697"/>
</g>
<g id="Group_269">
<path id="rect-8141487_102" d="M161.296 134.807H154.678V141.425H161.296V134.807Z" fill="#356697"/>
</g>
<g id="Group_270">
<path id="empty-8141487_27" d="M180.355 136.699V139.539C180.355 140.584 181.203 141.425 182.248 141.425H185.087C186.14 141.425 186.98 140.578 186.98 139.532V136.699C186.973 135.647 186.126 134.807 185.081 134.807H182.248C181.203 134.807 180.355 135.654 180.355 136.699Z" fill="#356697"/>
</g>
<g id="Group_271">
<path id="rect-8141487_103" d="M58.5857 141.226H51.9678V147.844H58.5857V141.226Z" fill="#356697"/>
</g>
<g id="Group_272">
<path id="rect-8141487_104" d="M77.8445 141.226H71.2266V147.844H77.8445V141.226Z" fill="#356697"/>
</g>
<g id="Group_273">
<path id="t-8141487_19" d="M90.6836 141.226V145.594C90.6836 146.837 89.6762 147.844 88.4335 147.844H86.3158C85.0731 147.844 84.0657 146.837 84.0657 145.594V141.226H90.6836Z" fill="#356697"/>
</g>
<g id="Group_274">
<path id="rb-8141487_14" d="M109.941 147.844H103.324V143.476C103.324 142.233 104.331 141.226 105.574 141.226H109.941V147.844Z" fill="#356697"/>
</g>
<g id="Group_275">
<path id="lb-8141487_18" d="M109.742 147.844V141.226H114.11C115.353 141.226 116.36 142.233 116.36 143.476V147.844H109.742Z" fill="#356697"/>
</g>
<g id="Group_276">
<path id="rect-8141487_105" d="M135.619 141.226H129.001V147.844H135.619V141.226Z" fill="#356697"/>
</g>
<g id="Group_277">
<path id="empty-8141487_28" d="M141.839 143.119V145.958C141.839 147.004 142.686 147.844 143.732 147.844H146.571C147.623 147.844 148.463 146.997 148.463 145.951V143.119C148.457 142.067 147.61 141.226 146.564 141.226H143.732C142.686 141.226 141.839 142.073 141.839 143.119Z" fill="#356697"/>
</g>
<g id="Group_278">
<path id="rect-8141487_106" d="M161.296 141.226H154.678V147.844H161.296V141.226Z" fill="#356697"/>
</g>
<g id="Group_279">
<path id="rect-8141487_107" d="M167.716 141.226H161.098V147.844H167.716V141.226Z" fill="#356697"/>
</g>
<g id="Group_280">
<path id="lb-8141487_19" d="M167.517 147.844V141.226H171.884C173.127 141.226 174.135 142.233 174.135 143.476V147.844H167.517Z" fill="#356697"/>
</g>
<g id="Group_281">
<path id="rt-8141487_21" d="M58.5859 147.645V154.263H54.2181C52.9754 154.263 51.968 153.256 51.968 152.013V147.645H58.5859Z" fill="#356697"/>
</g>
<g id="Group_282">
<path id="l-8141487_18" d="M58.3877 154.263V147.645H62.7555C63.9982 147.645 65.0056 148.653 65.0056 149.895V154.263H58.3877Z" fill="#356697"/>
</g>
<g id="Group_283">
<path id="t-8141487_20" d="M77.8447 147.645V152.013C77.8447 153.256 76.8373 154.263 75.5946 154.263H73.4769C72.2342 154.263 71.2268 153.256 71.2268 152.013V147.645H77.8447Z" fill="#356697"/>
</g>
<g id="Group_284">
<path id="n_rb-8141487_19" d="M88.6641 154.131V154.263H90.6825V152.245H90.5502C90.5502 153.291 89.7031 154.131 88.6641 154.131Z" fill="#356697"/>
</g>
<g id="Group_285">
<path id="b-8141487_18" d="M90.4844 154.263V149.895C90.4844 148.653 91.4918 147.645 92.7345 147.645H94.8522C96.0949 147.645 97.1023 148.653 97.1023 149.895V154.263H90.4844Z" fill="#356697"/>
</g>
<g id="Group_286">
<path id="rt-8141487_22" d="M109.941 147.645V154.263H105.574C104.331 154.263 103.324 153.256 103.324 152.013V147.645H109.941Z" fill="#356697"/>
</g>
<g id="Group_287">
<path id="lt-8141487_8" d="M109.742 147.645H116.36V152.013C116.36 153.256 115.353 154.263 114.11 154.263H109.742V147.645Z" fill="#356697"/>
</g>
<g id="Group_288">
<path id="rect-8141487_108" d="M135.619 147.645H129.001V154.263H135.619V147.645Z" fill="#356697"/>
</g>
<g id="Group_289">
<path id="n_rb-8141487_20" d="M152.858 154.131V154.263H154.877V152.245H154.745C154.745 153.291 153.897 154.131 152.858 154.131Z" fill="#356697"/>
</g>
<g id="Group_290">
<path id="rect-8141487_109" d="M161.296 147.645H154.678V154.263H161.296V147.645Z" fill="#356697"/>
</g>
<g id="Group_291">
<path id="t-8141487_21" d="M174.135 147.645V152.013C174.135 153.256 173.127 154.263 171.885 154.263H169.767C168.524 154.263 167.517 153.256 167.517 152.013V147.645H174.135Z" fill="#356697"/>
</g>
<g id="Group_292">
<path id="n_rb-8141487_21" d="M75.8262 160.55V160.683H77.8446V158.664H77.7123C77.7123 159.71 76.8652 160.55 75.8262 160.55Z" fill="#356697"/>
</g>
<g id="Group_293">
<path id="rb-8141487_15" d="M84.2637 160.683H77.6458V156.315C77.6458 155.072 78.6532 154.065 79.8959 154.065H84.2637V160.683Z" fill="#356697"/>
</g>
<g id="Group_294">
<path id="rect-8141487_110" d="M90.6833 154.065H84.0654V160.683H90.6833V154.065Z" fill="#356697"/>
</g>
<g id="Group_295">
<path id="rect-8141487_111" d="M97.1023 154.065H90.4844V160.683H97.1023V154.065Z" fill="#356697"/>
</g>
<g id="Group_296">
<path id="n_rb-8141487_22" d="M127.181 160.55V160.683H129.199V158.664H129.067C129.067 159.71 128.22 160.55 127.181 160.55Z" fill="#356697"/>
</g>
<g id="Group_297">
<path id="rect-8141487_112" d="M135.619 154.065H129.001V160.683H135.619V154.065Z" fill="#356697"/>
</g>
<g id="Group_298">
<path id="rect-8141487_113" d="M142.038 154.065H135.42V160.683H142.038V154.065Z" fill="#356697"/>
</g>
<g id="Group_299">
<path id="rect-8141487_114" d="M148.457 154.065H141.839V160.683H148.457V154.065Z" fill="#356697"/>
</g>
<g id="Group_300">
<path id="rect-8141487_115" d="M154.877 154.065H148.259V160.683H154.877V154.065Z" fill="#356697"/>
</g>
<g id="Group_301">
<path id="rect-8141487_116" d="M161.296 154.065H154.678V160.683H161.296V154.065Z" fill="#356697"/>
</g>
<g id="Group_302">
<path id="l-8141487_19" d="M161.098 160.683V154.065H165.465C166.708 154.065 167.716 155.072 167.716 156.315V160.683H161.098Z" fill="#356697"/>
</g>
<g id="Group_303">
<path id="r-8141487_14" d="M58.5859 167.102H54.2181C52.9754 167.102 51.968 166.095 51.968 164.852V162.734C51.968 161.492 52.9754 160.484 54.2181 160.484H58.5859V167.102Z" fill="#356697"/>
</g>
<g id="Group_304">
<path id="l-8141487_20" d="M58.3877 167.102V160.484H62.7555C63.9982 160.484 65.0056 161.492 65.0056 162.734V167.102H58.3877Z" fill="#356697"/>
</g>
<g id="Group_305">
<path id="r-8141487_15" d="M77.8447 167.102H73.4769C72.2342 167.102 71.2268 166.095 71.2268 164.852V162.734C71.2268 161.492 72.2342 160.484 73.4769 160.484H77.8447V167.102Z" fill="#356697"/>
</g>
<g id="Group_306">
<path id="rect-8141487_117" d="M84.2634 160.484H77.6455V167.102H84.2634V160.484Z" fill="#356697"/>
</g>
<g id="Group_307">
<path id="rt-8141487_23" d="M97.1025 160.484V167.102H92.7347C91.492 167.102 90.4846 166.095 90.4846 164.852V160.484H97.1025Z" fill="#356697"/>
</g>
<g id="Group_308">
<path id="rect-8141487_118" d="M103.521 160.484H96.9033V167.102H103.521V160.484Z" fill="#356697"/>
</g>
<g id="Group_309">
<path id="l-8141487_21" d="M103.323 167.102V160.484H107.691C108.934 160.484 109.941 161.492 109.941 162.734V167.102H103.323Z" fill="#356697"/>
</g>
<g id="Group_310">
<path id="rb-8141487_16" d="M129.199 167.102H122.581V162.734C122.581 161.492 123.589 160.484 124.831 160.484H129.199V167.102Z" fill="#356697"/>
</g>
<g id="Group_311">
<path id="rect-8141487_119" d="M135.619 160.484H129.001V167.102H135.619V160.484Z" fill="#356697"/>
</g>
<g id="Group_312">
<path id="rect-8141487_120" d="M142.038 160.484H135.42V167.102H142.038V160.484Z" fill="#356697"/>
</g>
<g id="Group_313">
<path id="lt-8141487_9" d="M141.839 160.484H148.457V164.852C148.457 166.095 147.449 167.102 146.207 167.102H141.839V160.484Z" fill="#356697"/>
</g>
<g id="Group_314">
<path id="rect-8141487_121" d="M161.296 160.484H154.678V167.102H161.296V160.484Z" fill="#356697"/>
</g>
<g id="Group_315">
<path id="b-8141487_19" d="M180.355 167.102V162.734C180.355 161.492 181.363 160.484 182.606 160.484H184.723C185.966 160.484 186.973 161.492 186.973 162.734V167.102H180.355Z" fill="#356697"/>
</g>
<g id="Group_316">
<path id="empty-8141487_29" d="M64.8066 168.796V171.635C64.8066 172.681 65.6537 173.521 66.6994 173.521H69.5384C70.5907 173.521 71.4312 172.674 71.4312 171.629V168.796C71.4245 167.744 70.5775 166.904 69.5318 166.904H66.6994C65.6537 166.904 64.8066 167.751 64.8066 168.796Z" fill="#356697"/>
</g>
<g id="Group_317">
<path id="rt-8141487_24" d="M84.2637 166.904V173.521H79.8959C78.6532 173.521 77.6458 172.514 77.6458 171.271V166.904H84.2637Z" fill="#356697"/>
</g>
<g id="Group_318">
<path id="l-8141487_22" d="M84.0654 173.521V166.904H88.4332C89.6759 166.904 90.6833 167.911 90.6833 169.154V173.521H84.0654Z" fill="#356697"/>
</g>
<g id="Group_319">
<path id="rt-8141487_25" d="M129.199 166.904V173.521H124.831C123.589 173.521 122.581 172.514 122.581 171.271V166.904H129.199Z" fill="#356697"/>
</g>
<g id="Group_320">
<path id="rect-8141487_122" d="M135.619 166.904H129.001V173.521H135.619V166.904Z" fill="#356697"/>
</g>
<g id="Group_321">
<path id="rt-8141487_26" d="M161.296 166.904V173.521H156.928C155.685 173.521 154.678 172.514 154.678 171.271V166.904H161.296Z" fill="#356697"/>
</g>
<g id="Group_322">
<path id="rect-8141487_123" d="M167.716 166.904H161.098V173.521H167.716V166.904Z" fill="#356697"/>
</g>
<g id="Group_323">
<path id="l-8141487_23" d="M167.517 173.521V166.904H171.884C173.127 166.904 174.135 167.911 174.135 169.154V173.521H167.517Z" fill="#356697"/>
</g>
<g id="Group_324">
<path id="t-8141487_22" d="M186.974 166.904V171.271C186.974 172.514 185.966 173.521 184.724 173.521H182.606C181.363 173.521 180.356 172.514 180.356 171.271V166.904H186.974Z" fill="#356697"/>
</g>
<g id="Group_325">
<path id="r-8141487_16" d="M58.5859 179.941H54.2181C52.9754 179.941 51.968 178.933 51.968 177.691V175.573C51.968 174.33 52.9754 173.323 54.2181 173.323H58.5859V179.941Z" fill="#356697"/>
</g>
<g id="Group_326">
<path id="lb-8141487_20" d="M58.3877 179.941V173.323H62.7555C63.9982 173.323 65.0056 174.33 65.0056 175.573V179.941H58.3877Z" fill="#356697"/>
</g>
<g id="Group_327">
<path id="n_rb-8141487_23" d="M88.6641 179.808V179.941H90.6825V177.922H90.5502C90.5502 178.968 89.7031 179.808 88.6641 179.808Z" fill="#356697"/>
</g>
<g id="Group_328">
<path id="rb-8141487_17" d="M97.1025 179.941H90.4846V175.573C90.4846 174.33 91.492 173.323 92.7347 173.323H97.1025V179.941Z" fill="#356697"/>
</g>
<g id="Group_329">
<path id="l-8141487_24" d="M96.9033 179.941V173.323H101.271C102.514 173.323 103.521 174.33 103.521 175.573V179.941H96.9033Z" fill="#356697"/>
</g>
<g id="Group_330">
<path id="n_rb-8141487_24" d="M107.923 179.808V179.941H109.941V177.922H109.809C109.809 178.968 108.962 179.808 107.923 179.808Z" fill="#356697"/>
</g>
<g id="Group_331">
<path id="rb-8141487_18" d="M116.36 179.941H109.742V175.573C109.742 174.33 110.75 173.323 111.993 173.323H116.36V179.941Z" fill="#356697"/>
</g>
<g id="Group_332">
<path id="lb-8141487_21" d="M116.162 179.941V173.323H120.53C121.773 173.323 122.78 174.33 122.78 175.573V179.941H116.162Z" fill="#356697"/>
</g>
<g id="Group_333">
<path id="n_rb-8141487_25" d="M127.181 179.808V179.941H129.199V177.922H129.067C129.067 178.968 128.22 179.808 127.181 179.808Z" fill="#356697"/>
</g>
<g id="Group_334">
<path id="rect-8141487_124" d="M135.619 173.323H129.001V179.941H135.619V173.323Z" fill="#356697"/>
</g>
<g id="Group_335">
<path id="rect-8141487_125" d="M142.038 173.323H135.42V179.941H142.038V173.323Z" fill="#356697"/>
</g>
<g id="Group_336">
<path id="rect-8141487_126" d="M148.457 173.323H141.839V179.941H148.457V173.323Z" fill="#356697"/>
</g>
<g id="Group_337">
<path id="l-8141487_25" d="M148.259 179.941V173.323H152.627C153.869 173.323 154.877 174.33 154.877 175.573V179.941H148.259Z" fill="#356697"/>
</g>
<g id="Group_338">
<path id="t-8141487_23" d="M167.716 173.323V177.691C167.716 178.933 166.708 179.941 165.466 179.941H163.348C162.105 179.941 161.098 178.933 161.098 177.691V173.323H167.716Z" fill="#356697"/>
</g>
<g id="Group_339">
<path id="b-8141487_20" d="M173.937 179.941V175.573C173.937 174.33 174.944 173.323 176.187 173.323H178.304C179.547 173.323 180.554 174.33 180.554 175.573V179.941H173.937Z" fill="#356697"/>
</g>
<g id="Group_340">
<path id="t-8141487_24" d="M65.0059 179.742V184.11C65.0059 185.353 63.9985 186.36 62.7558 186.36H60.638C59.3954 186.36 58.388 185.353 58.388 184.11V179.742H65.0059Z" fill="#356697"/>
</g>
<g id="Group_341">
<path id="r-8141487_17" d="M90.6836 186.36H86.3158C85.0731 186.36 84.0657 185.353 84.0657 184.11V181.992C84.0657 180.75 85.0731 179.742 86.3158 179.742H90.6836V186.36Z" fill="#356697"/>
</g>
<g id="Group_342">
<path id="lt-8141487_10" d="M90.4844 179.742H97.1023V184.11C97.1023 185.353 96.0949 186.36 94.8522 186.36H90.4844V179.742Z" fill="#356697"/>
</g>
<g id="Group_343">
<path id="r-8141487_18" d="M109.941 186.36H105.574C104.331 186.36 103.324 185.353 103.324 184.11V181.992C103.324 180.75 104.331 179.742 105.574 179.742H109.941V186.36Z" fill="#356697"/>
</g>
<g id="Group_344">
<path id="rect-8141487_127" d="M116.36 179.742H109.742V186.36H116.36V179.742Z" fill="#356697"/>
</g>
<g id="Group_345">
<path id="rect-8141487_128" d="M122.78 179.742H116.162V186.36H122.78V179.742Z" fill="#356697"/>
</g>
<g id="Group_346">
<path id="rect-8141487_129" d="M129.199 179.742H122.581V186.36H129.199V179.742Z" fill="#356697"/>
</g>
<g id="Group_347">
<path id="lt-8141487_11" d="M129.001 179.742H135.619V184.11C135.619 185.353 134.611 186.36 133.369 186.36H129.001V179.742Z" fill="#356697"/>
</g>
<g id="Group_348">
<path id="empty-8141487_30" d="M154.678 181.635V184.474C154.678 185.52 155.525 186.36 156.57 186.36H159.41C160.462 186.36 161.302 185.513 161.302 184.467V181.635C161.296 180.583 160.449 179.742 159.403 179.742H156.57C155.525 179.742 154.678 180.589 154.678 181.635Z" fill="#356697"/>
</g>
<g id="Group_349">
<path id="t-8141487_25" d="M180.555 179.742V184.11C180.555 185.353 179.547 186.36 178.305 186.36H176.187C174.944 186.36 173.937 185.353 173.937 184.11V179.742H180.555Z" fill="#356697"/>
</g>
<path id="point-8141487" fill-rule="evenodd" clip-rule="evenodd" d="M40.3208 30.2656V16.0589C40.3208 9.75296 39.463 8.21433 39.094 7.84456C38.7243 7.47562 37.1856 6.61778 30.8789 6.61778H16.673C10.3662 6.61778 8.82761 7.47562 8.45866 7.84456C8.08972 8.21433 7.23107 9.75296 7.23107 16.0589V30.2656C7.23107 36.5724 8.08972 38.111 8.45866 38.4808C8.82761 38.8489 10.3662 39.7075 16.673 39.7075H30.8789C37.1856 39.7075 38.7243 38.8489 39.094 38.4808C39.463 38.111 40.3208 36.5724 40.3208 30.2656ZM30.8789 0C43.8506 0 46.9386 3.08802 46.9386 16.0589C46.9386 29.0306 46.9386 17.2948 46.9386 30.2656C46.9386 43.2373 43.8506 46.3253 30.8789 46.3253C17.908 46.3253 29.6438 46.3253 16.673 46.3253C3.70131 46.3253 0.613281 43.2373 0.613281 30.2656C0.613281 17.2948 0.613281 23.3029 0.613281 16.0589C0.613281 3.08802 3.70131 0 16.673 0C29.6438 0 17.908 0 30.8789 0ZM26.82 13.2358C32.3795 13.2358 33.7028 14.5599 33.7028 20.1178C33.7028 25.6774 33.7028 20.648 33.7028 26.2067C33.7028 31.7654 32.3795 33.0895 26.82 33.0895C21.2612 33.0895 26.2906 33.0895 20.7319 33.0895C15.1732 33.0895 13.8491 31.7654 13.8491 26.2067C13.8491 20.648 13.8491 23.2226 13.8491 20.1178C13.8491 14.5599 15.1732 13.2358 20.7319 13.2358C26.2906 13.2358 21.2612 13.2358 26.82 13.2358Z" fill="#356697"/>
<path id="point-8141487_2" fill-rule="evenodd" clip-rule="evenodd" d="M180.091 30.2656V16.0589C180.091 9.75296 179.233 8.21433 178.865 7.84456C178.495 7.47562 176.956 6.61778 170.649 6.61778H156.443C150.137 6.61778 148.598 7.47562 148.229 7.84456C147.86 8.21433 147.002 9.75296 147.002 16.0589V30.2656C147.002 36.5724 147.86 38.111 148.229 38.4808C148.598 38.8489 150.137 39.7075 156.443 39.7075H170.649C176.956 39.7075 178.495 38.8489 178.865 38.4808C179.233 38.111 180.091 36.5724 180.091 30.2656ZM170.649 0C183.621 0 186.709 3.08802 186.709 16.0589C186.709 29.0306 186.709 17.2948 186.709 30.2656C186.709 43.2373 183.621 46.3253 170.649 46.3253C157.679 46.3253 169.414 46.3253 156.443 46.3253C143.472 46.3253 140.384 43.2373 140.384 30.2656C140.384 17.2948 140.384 23.3029 140.384 16.0589C140.384 3.08802 143.472 0 156.443 0C169.414 0 157.679 0 170.649 0ZM166.59 13.2358C172.15 13.2358 173.473 14.5599 173.473 20.1178C173.473 25.6774 173.473 20.648 173.473 26.2067C173.473 31.7654 172.15 33.0895 166.59 33.0895C161.032 33.0895 166.061 33.0895 160.502 33.0895C154.944 33.0895 153.62 31.7654 153.62 26.2067C153.62 20.648 153.62 23.2226 153.62 20.1178C153.62 14.5599 154.944 13.2358 160.502 13.2358C166.061 13.2358 161.032 13.2358 166.59 13.2358Z" fill="#356697"/>
<path id="point-8141487_3" fill-rule="evenodd" clip-rule="evenodd" d="M40.3208 170.036V155.829C40.3208 149.523 39.463 147.984 39.094 147.615C38.7243 147.246 37.1856 146.388 30.8789 146.388H16.673C10.3662 146.388 8.82761 147.246 8.45866 147.615C8.08972 147.984 7.23107 149.523 7.23107 155.829V170.036C7.23107 176.343 8.08972 177.881 8.45866 178.251C8.82761 178.619 10.3662 179.478 16.673 179.478H30.8789C37.1856 179.478 38.7243 178.619 39.094 178.251C39.463 177.881 40.3208 176.343 40.3208 170.036ZM30.8789 139.77C43.8506 139.77 46.9386 142.858 46.9386 155.829C46.9386 168.801 46.9386 157.065 46.9386 170.036C46.9386 183.007 43.8506 186.095 30.8789 186.095C17.908 186.095 29.6438 186.095 16.673 186.095C3.70131 186.095 0.613281 183.007 0.613281 170.036C0.613281 157.065 0.613281 163.073 0.613281 155.829C0.613281 142.858 3.70131 139.77 16.673 139.77C29.6438 139.77 17.908 139.77 30.8789 139.77ZM26.82 153.006C32.3795 153.006 33.7028 154.33 33.7028 159.888C33.7028 165.447 33.7028 160.418 33.7028 165.977C33.7028 171.536 32.3795 172.86 26.82 172.86C21.2612 172.86 26.2906 172.86 20.7319 172.86C15.1732 172.86 13.8491 171.536 13.8491 165.977C13.8491 160.418 13.8491 162.993 13.8491 159.888C13.8491 154.33 15.1732 153.006 20.7319 153.006C26.2906 153.006 21.2612 153.006 26.82 153.006Z" fill="#356697"/>
</g>
</svg>
