<svg width="143" height="147" viewBox="0 0 143 147" fill="none" xmlns="http://www.w3.org/2000/svg">
<path d="M141.894 112.261L128.31 98.6769L132.776 94.211C134.078 92.9085 134.078 91.0477 132.776 89.7452L114.54 71.5096C113.238 70.2071 111.377 70.2071 110.074 71.5096C103.748 77.8362 91.6528 90.1173 85.3262 96.2579L78.6274 102.957L67.2767 114.307C65.9742 115.61 65.9742 117.471 67.2767 118.773L85.3262 136.823C86.6287 138.125 88.4895 138.125 89.792 136.823L94.2579 132.357L107.842 145.941C109.144 147.243 111.005 147.243 112.307 145.941L141.522 116.726C142.824 115.61 142.824 113.563 141.894 112.261ZM87.5591 102.957L101.143 116.54L98.9098 118.959L85.3262 105.376L87.5591 102.957ZM94.444 96.2579L108.028 109.842L105.609 112.074L92.025 98.4908L94.444 96.2579ZM101.143 89.5591L114.726 103.143L112.493 105.376L98.9098 91.792L101.143 89.5591ZM112.307 78.2084L125.891 91.792C125.705 91.9781 118.634 99.049 119.192 98.4908L105.609 85.0933L112.307 78.2084ZM87.5591 130.31L73.9755 116.726L80.6743 110.028L94.2579 123.611C94.444 123.611 87.187 130.868 87.5591 130.31ZM110.074 139.242L98.7238 128.077L123.472 103.329L134.823 114.68L110.074 139.242Z" fill="#356697"/>
<path d="M69.5093 98.4908C70.8118 99.7933 72.6726 99.7933 73.9751 98.4908L92.0246 80.4413C93.3271 79.1388 93.3271 77.278 92.0246 75.9755L87.5588 71.5096L89.7917 69.2767C91.0942 67.9741 91.0942 66.1134 89.7917 64.8108C88.4891 63.5083 86.6284 63.5083 85.3258 64.8108L83.0929 67.0437L80.86 64.8108L83.0929 62.5779C84.3954 61.2754 84.3954 59.4146 83.0929 58.112C81.7904 56.8095 79.9296 56.8095 78.627 58.112L76.3941 60.345L74.1612 58.112L78.627 53.6462C79.9296 52.3437 79.9296 50.4829 78.627 49.1803L71.9283 42.4816L76.3941 38.0157C77.6967 36.7132 77.6967 34.8524 76.3941 33.5499L58.3446 15.5004C57.0421 14.1978 55.1813 14.1978 53.8788 15.5004L49.4129 19.9662L35.8293 6.38258C34.5267 5.08004 32.666 5.08004 31.3634 6.38258L1.96323 35.4106C0.660693 36.7132 0.660693 38.5739 1.96323 39.8765L15.5469 53.4601L11.081 57.926C9.77848 59.2285 9.77848 61.0893 11.081 62.3918L29.1305 80.4413C30.433 81.7439 32.2938 81.7439 33.5964 80.4413L35.8293 78.2084L42.5281 84.9072C43.8306 86.2097 45.6914 86.2097 46.9939 84.9072L51.4598 80.4413L53.6927 82.6742L51.6458 85.0932C49.599 87.1401 51.0876 90.6756 53.8788 90.6756C54.6231 90.6756 55.3674 90.4895 56.1117 89.7452L58.3446 87.5122L60.5776 89.7452L58.3446 91.9781C56.2978 94.0249 57.7864 97.5604 60.5776 97.5604C61.3219 97.5604 62.2522 97.3743 62.8105 96.63L65.0434 94.3971L69.5093 98.4908ZM33.5964 12.8953L44.9471 24.246L20.0127 48.9943L8.66202 37.8296L33.5964 12.8953ZM85.3258 78.2084L71.7422 91.792L69.5093 89.5591L83.0929 75.9755L85.3258 78.2084ZM17.7798 60.345L56.1117 22.0131L69.6953 35.5967L65.2295 40.0626L33.5964 71.5096L31.3634 73.7425L17.7798 60.345ZM44.761 78.2084L40.2951 73.7425L67.2763 46.7613L71.7422 51.2272C68.0206 54.9487 53.5066 69.4628 49.2268 73.7425L44.761 78.2084ZM56.1117 75.9755L69.6953 62.3918L71.9283 64.6247L58.3446 78.2084L56.1117 75.9755ZM62.8105 82.8603L76.3941 69.2767L78.627 71.5096L65.0434 85.0932L62.8105 82.8603Z" fill="#356697"/>
<path d="M91.2887 23.4076L86.8164 27.8824L91.2912 32.3547L95.7635 27.8799L91.2887 23.4076Z" fill="#356697"/>
<path d="M35.6436 127.333L40.2955 131.798L44.7613 127.333L40.2955 122.867L35.6436 127.333Z" fill="#356697"/>
<path d="M128.992 39.8318L124.519 44.3054L128.992 48.7789L133.466 44.3054L128.992 39.8318Z" fill="#356697"/>
<path d="M127.566 10.6626C129.313 10.6626 130.729 9.2463 130.729 7.49925C130.729 5.7522 129.313 4.33594 127.566 4.33594C125.819 4.33594 124.402 5.7522 124.402 7.49925C124.402 9.2463 125.819 10.6626 127.566 10.6626Z" fill="#356697"/>
<path d="M70.4397 7.31295C72.1867 7.31295 73.603 5.89669 73.603 4.14964C73.603 2.40259 72.1867 0.986328 70.4397 0.986328C68.6926 0.986328 67.2764 2.40259 67.2764 4.14964C67.2764 5.89669 68.6926 7.31295 70.4397 7.31295Z" fill="#356697"/>
<path d="M105.422 58.4842C107.169 58.4842 108.585 57.0679 108.585 55.3209C108.585 53.5738 107.169 52.1576 105.422 52.1576C103.675 52.1576 102.259 53.5738 102.259 55.3209C102.259 57.0679 103.675 58.4842 105.422 58.4842Z" fill="#356697"/>
<path d="M28.758 93.4668C27.0833 93.4668 25.5947 94.9554 25.5947 96.6301C25.5947 98.3048 27.0833 99.7934 28.758 99.7934C30.4327 99.7934 31.9214 98.3048 31.9214 96.6301C32.1074 94.9554 30.6188 93.4668 28.758 93.4668Z" fill="#356697"/>
<path d="M12.7561 128.821C11.0814 128.821 9.59277 130.31 9.59277 131.985C9.59277 133.659 11.0814 135.148 12.7561 135.148C14.4308 135.148 15.9194 133.659 15.9194 131.985C16.1055 130.124 14.6169 128.821 12.7561 128.821Z" fill="#356697"/>
</svg>
